<?xml version="1.0" encoding="UTF-8" standalone="no"?>
<svg
   xmlns:dc="http://purl.org/dc/elements/1.1/"
   xmlns:cc="http://creativecommons.org/ns#"
   xmlns:rdf="http://www.w3.org/1999/02/22-rdf-syntax-ns#"
   xmlns:svg="http://www.w3.org/2000/svg"
   xmlns="http://www.w3.org/2000/svg"
   xmlns:sodipodi="http://sodipodi.sourceforge.net/DTD/sodipodi-0.dtd"
   xmlns:inkscape="http://www.inkscape.org/namespaces/inkscape"
   width="150mm"
   height="70mm"
   viewBox="0 0 150 70"
   version="1.1"
   id="svg8"
   sodipodi:docname="zulf.svg"
   inkscape:version="1.0.2-2 (e86c870879, 2021-01-15)">
  <defs
     id="defs2" />
  <sodipodi:namedview
     id="base"
     pagecolor="#ffffff"
     bordercolor="#666666"
     borderopacity="1.0"
     inkscape:pageopacity="0.0"
     inkscape:pageshadow="2"
     inkscape:zoom="1.4"
     inkscape:cx="315.65158"
     inkscape:cy="122.03714"
     inkscape:document-units="mm"
     inkscape:current-layer="layer2"
     inkscape:document-rotation="0"
     showgrid="false"
     showguides="true"
     inkscape:guide-bbox="true"
     inkscape:window-width="1920"
     inkscape:window-height="991"
     inkscape:window-x="-9"
     inkscape:window-y="241"
     inkscape:window-maximized="1" />
  <metadata
     id="metadata5">
    <rdf:RDF>
      <cc:Work
         rdf:about="">
        <dc:format>image/svg+xml</dc:format>
        <dc:type
           rdf:resource="http://purl.org/dc/dcmitype/StillImage" />
        <dc:title />
      </cc:Work>
    </rdf:RDF>
  </metadata>
  <g
     inkscape:label="Warstwa 1"
     inkscape:groupmode="layer"
     id="layer1"
     style="display:none;opacity:0.180438">
    <path
       style="fill:none;stroke:#000000;stroke-width:0.264583px;stroke-linecap:butt;stroke-linejoin:miter;stroke-opacity:1"
       d="M 52.117558,74.300928 C 59.416679,60.588715 65.981264,45.880064 83.38809,43.832203 c 11.495749,-1.352442 22.81505,-2.174613 34.2105,0.267269 27.73636,5.943504 19.65257,22.521587 25.92515,25.657873 1.56706,0.783531 2.45055,4.321442 3.74177,5.612661 0.11461,0.11461 3.51739,2.362539 3.4745,2.405425 -2.36999,2.369995 -8.85437,3.274478 -12.02713,4.543581 -21.81077,8.72431 -40.819501,5.755389 -63.342874,2.939966 C 69.740745,84.555321 51.321559,79.87291 52.117558,74.300928 Z"
       id="path835" />
    <path
       style="fill:none;stroke:#000000;stroke-width:0.264583px;stroke-linecap:butt;stroke-linejoin:miter;stroke-opacity:1"
       d="M 51.971725,75.406249 C 42.775944,75.280323 46.82105,60.73246 36.66369,57.830357 28.81472,55.587793 13.396302,65.079083 20.599702,74.083332 c 10.798793,13.498492 24.463737,6.32088 29.86012,11.717261 1.193059,1.193062 -9.229712,9.480113 -5.669645,13.04018 2.201563,2.201557 8.846952,1.126831 11.717263,1.700897 5.85257,1.17051 12.731647,-0.27088 18.70982,0.18898 16.130119,1.24078 32.74841,1.53509 48.94792,0.37798 8.07699,-0.57693 23.19358,2.38833 30.23809,-1.13393 4.2579,-2.128948 -7.61047,-20.211068 -7.9375,-21.355653"
       id="path837" />
  </g>
  <g
     inkscape:groupmode="layer"
     id="layer2"
     inkscape:label="zulf">
    <path
       style="fill:none;stroke:#000000;stroke-width:0.264583px;stroke-linecap:butt;stroke-linejoin:miter;stroke-opacity:1"
       d="m 77.650023,5.5845495 c 0,0 -19.978393,-2.9232603 -32.005521,-0.384199 -12.02713,2.539058 -15.03391,4.476763 -15.03391,4.476763 0,0 -8.01809,4.1426765 -10.02261,11.8934945 -2.00452,7.750815 -7.28309,14.49937 -12.8957603,17.305703 -5.61265,2.806329 2.9733803,3.708363 2.9733803,3.708363 0,0 18.64585,3.24494 26.39436,5.323808 7.74851,2.078868 35.388019,0.425222 35.388019,0.425222 0,0 23.340028,-2.220611 29.104169,-6.378347 5.76413,-4.157739 5.88225,-5.220795 5.88225,-5.220795 0,0 0.47247,-0.448848 -0.4016,-2.196987 C 106.15873,32.789434 97.427968,15.824313 91.882127,12.082539 86.336283,8.3407665 87.605815,8.3073575 77.650023,5.5845495 Z"
       id="path840" />
    <path
       style="fill:none;stroke:#000000;stroke-width:0.264583px;stroke-linecap:butt;stroke-linejoin:miter;stroke-opacity:1"
       d="m 11.935132,42.818536 c 0,0 -6.7151503,10.423512 -7.0158303,15.334588 -0.30067,4.911073 4.91108,5.111533 4.91108,5.111533 0,0 12.7621203,1.13589 21.0808903,-0.40091 8.31876,-1.536797 51.482785,0.26727 51.482785,0.26727 0,0 17.305703,1.00226 25.256973,-0.66817 7.95127,-1.670438 8.14609,-3.782043 8.14609,-3.782043 0,0 0.77958,-0.732329 -1.58277,-4.22861 -2.36235,-3.496278 -4.15774,-5.38616 -4.15774,-5.38616 0,0 -2.26786,-2.078868 3.54353,-3.638021 5.81138,-1.559152 15.11904,-2.385975 15.11904,-2.385975 0,0 7.79696,-0.223502 12.40736,-11.382005 4.61039,-11.158503 -11.4926,-13.831199 -11.4926,-13.831199 0,0 -7.28309,-1.80407 -11.82667,6.080381 -4.54358,7.884451 -4.2095,11.02487 -4.2095,11.02487 0,0 -0.20045,2.539061 -6.1472,2.138156"
       id="path854" />
    <circle
       style="fill:#ffffff;fill-opacity:1;stroke:#000000;stroke-width:0.2;stroke-linecap:round;stroke-linejoin:round;stroke-opacity:1"
       id="path856"
       cx="-133.25879"
       cy="27.13315"
       r="3.0234866"
       transform="scale(-1,1)" />
    <path
       style="mix-blend-mode:normal;fill:#ff5722;fill-opacity:1;stroke:#ff5722;stroke-width:0.3;stroke-linecap:square;stroke-linejoin:miter;stroke-miterlimit:0;stroke-dasharray:none;stroke-opacity:1;paint-order:stroke markers fill"
       d="m 22.452573,63.441738 c 2.484446,-0.07975 5.334656,-0.324297 7.617182,-0.653545 3.57337,-0.515445 5.272448,-0.607205 12.762122,-0.689234 8.762942,-0.09597 21.67433,0.157708 35.480029,0.697103 11.252769,0.439653 15.411868,0.51358 19.684275,0.349896 5.543279,-0.212376 8.009659,-0.478166 10.802309,-1.164111 2.96626,-0.728592 5.13139,-1.623674 6.18057,-2.555103 0.48678,-0.432146 0.58658,-0.60834 0.64659,-1.141465 0.0599,-0.532442 -0.003,-0.78658 -0.40609,-1.634953 -0.79018,-1.663901 -2.65365,-4.284157 -5.23622,-7.362719 -0.90781,-1.082162 -0.71742,-1.948754 0.63101,-2.872209 1.71184,-1.172329 7.4864,-2.388986 15.80655,-3.330328 3.63086,-0.410792 4.7184,-0.678448 6.34717,-1.562103 3.54654,-1.924103 6.85515,-6.143911 8.45174,-10.779374 0.37645,-1.092991 0.42346,-1.395954 0.42888,-2.764324 0.007,-1.745864 -0.1854,-2.509815 -0.94975,-3.772596 -0.86513,-1.429293 -2.89128,-3.135829 -4.92409,-4.147337 -1.95057,-0.970587 -5.53919,-2.030382 -7.38612,-2.181271 -2.00053,-0.163439 -4.46484,0.499172 -6.32297,1.700144 -2.15548,1.393151 -3.53703,3.199264 -5.60847,7.331982 -1.58547,3.16317 -2.38542,5.448215 -2.65145,7.573796 -0.0705,0.563197 -0.22219,1.09506 -0.36764,1.288904 -0.69676,0.928635 -2.09962,1.410706 -4.43204,1.523 l -1.64535,0.07922 -0.82689,0.821354 c -1.74642,1.734733 -5.00105,4.153882 -6.573184,4.885804 -4.158036,1.935824 -14.065131,3.978907 -25.190153,5.194824 -5.135552,0.561295 -14.636523,0.867616 -24.138885,0.778264 -9.044519,-0.08505 -10.710452,-0.224306 -14.74883,-1.232877 -2.640711,-0.659511 -7.378343,-1.675466 -12.093945,-2.593469 -4.617088,-0.898824 -11.378602,-2.149009 -11.62272,-2.149009 -0.234098,0 -2.3299841,3.558293 -3.8962856,6.614919 -2.7588369,5.383855 -3.5940391,8.389546 -2.8990872,10.433116 0.4716648,1.386967 2.0667292,2.53442 3.9855377,2.867096 1.4902311,0.258368 9.9611891,0.547246 13.0962051,0.446609 z M 131.73423,29.932751 c -1.84601,-0.966822 -2.20648,-3.531407 -0.70711,-5.030781 2.00188,-2.001879 5.36388,-0.631345 5.37146,2.189701 0.003,1.257951 -0.4646,2.164594 -1.42305,2.756948 -0.85164,0.526341 -2.32399,0.564557 -3.2413,0.08413 z"
       id="path930" />
    <path
       style="fill:#ff5722;fill-opacity:1;stroke:#181818;stroke-width:0.2;stroke-linecap:square;stroke-linejoin:miter;stroke-miterlimit:0;stroke-dasharray:none;stroke-opacity:1;paint-order:stroke markers fill"
       d="m 23.477199,63.463606 c 2.193237,-0.08966 4.194519,-0.285864 8.68626,-0.851599 0.954958,-0.120277 4.036081,-0.265419 7.617182,-0.358822 8.7709,-0.228764 21.627928,-0.0024 40.290879,0.70939 12.041656,0.459256 20.02202,0.385839 24.9897,-0.229891 4.22863,-0.524129 8.35127,-1.877296 9.91616,-3.254764 0.514,-0.45244 0.64204,-0.657744 0.71543,-1.147104 0.077,-0.513133 0.0225,-0.736962 -0.39177,-1.609198 -0.80003,-1.684637 -2.48924,-4.119975 -4.85188,-6.994994 -0.90493,-1.101169 -1.07194,-1.576702 -0.77415,-2.204238 0.82639,-1.741503 5.17317,-2.89714 16.0996,-4.280254 2.02123,-0.255855 4.13413,-0.583568 4.69534,-0.728253 3.94771,-1.017735 8.10542,-5.228537 10.30643,-10.438053 0.82717,-1.957798 0.93186,-2.488541 0.88019,-4.462261 -0.0455,-1.738832 -0.0543,-1.782783 -0.55957,-2.804724 -0.887,-1.793948 -3.24047,-3.867516 -5.65653,-4.983807 -2.2657,-1.046817 -5.99318,-2.048127 -7.62438,-2.048127 -1.71562,0 -3.80157,0.593521 -5.42416,1.543347 -2.2139,1.295967 -3.81939,3.293367 -5.80888,7.226852 -1.69816,3.357499 -2.36607,5.201084 -2.89382,7.987511 -0.13562,0.716101 -0.2981,1.160844 -0.50515,1.382763 -0.69634,0.746326 -2.06278,1.154118 -4.38109,1.30746 l -1.40316,0.09281 -1.1359,1.030179 c -2.23745,2.029217 -4.56608,3.754268 -6.14112,4.549344 -2.9726,1.500563 -10.723532,3.31511 -19.383116,4.53772 -8.365628,1.181108 -13.960779,1.485744 -27.261492,1.484286 -8.509436,-0.0011 -11.898839,-0.115848 -14.164318,-0.480221 -0.698772,-0.11239 -2.803956,-0.558591 -4.678182,-0.991561 -6.387436,-1.475573 -20.681236,-4.281154 -22.043916,-4.32677 -0.573617,-0.01921 -0.611971,0.0047 -1.041996,0.648239 -0.809969,1.212213 -2.8641937,4.904248 -3.8646918,6.945956 -1.8251037,3.724502 -2.5826799,6.018953 -2.5826799,7.82212 0,1.647648 0.5030682,2.651321 1.7615879,3.514572 1.5174807,1.040884 2.9270034,1.250246 9.1964638,1.36599 2.094725,0.03867 4.079201,0.08699 4.409946,0.107376 0.330747,0.02037 1.6838,-0.0072 3.006783,-0.06128 z M 131.81531,29.884886 c -0.20972,-0.108451 -0.5983,-0.437362 -0.8635,-0.730915 -0.82034,-0.908018 -0.98839,-2.143471 -0.4491,-3.30163 0.91953,-1.974743 3.40361,-2.41651 4.90236,-0.871832 0.7183,0.740312 1.00253,1.557472 0.88549,2.545725 -0.14794,1.249124 -0.78406,2.066438 -1.94797,2.502834 -0.58513,0.219389 -1.97786,0.139932 -2.52728,-0.144182 z"
       id="path1078" />
    <path
       style="fill:#ff5722;fill-opacity:1;stroke:#181818;stroke-width:0.2;stroke-linecap:square;stroke-linejoin:miter;stroke-miterlimit:0;stroke-dasharray:none;stroke-opacity:1;paint-order:stroke markers fill"
       d="m 26.050814,63.232654 c 9.057082,-1.103109 16.005889,-1.336649 30.710566,-1.032129 5.820833,0.120544 13.857551,0.343606 17.859374,0.495697 17.098777,0.649837 26.876846,0.559696 31.844496,-0.293566 5.20873,-0.89467 9.16592,-2.7212 9.16592,-4.230735 0,-1.041387 -1.80249,-4.014166 -4.53815,-7.484573 -1.5347,-1.9469 -1.75639,-2.349043 -1.59271,-2.889208 0.585,-1.930606 3.83937,-2.902746 14.97678,-4.473842 6.15514,-0.868273 6.47734,-0.940779 8.2575,-1.858185 1.00188,-0.516318 1.82742,-1.189569 3.40179,-2.774264 2.22827,-2.242876 3.32692,-3.855786 4.58547,-6.731831 0.64536,-1.474788 0.70048,-1.747234 0.76744,-3.793815 0.0716,-2.189492 0.0678,-2.213055 -0.54689,-3.36633 -1.6717,-3.136426 -6.26329,-5.816731 -11.51801,-6.723547 -4.20526,-0.72571 -8.22582,1.223223 -10.90127,5.284297 -1.91081,2.900426 -4.0707,7.809788 -4.58091,10.412291 -0.52265,2.665873 -1.1316,3.11685 -4.70468,3.484192 -1.73684,0.178559 -1.77925,0.194985 -2.81157,1.088877 -3.50539,3.03535 -5.47318,4.365532 -7.727067,5.22333 -2.949215,1.122431 -8.200938,2.3676 -14.049962,3.331207 -10.052627,1.656136 -16.469646,2.08606 -31.10035,2.083636 -10.676162,-0.0016 -12.902075,-0.146656 -17.386903,-1.131737 -9.887122,-2.171681 -23.51383,-4.792622 -23.977602,-4.611811 -0.812181,0.316645 -5.2150276,8.738761 -6.3689919,12.183115 -0.5089525,1.519123 -0.5800698,1.968965 -0.5236977,3.31253 0.058901,1.403834 0.1216845,1.625145 0.6470174,2.280793 0.7599018,0.948399 2.1509963,1.690431 3.6745915,1.960076 1.1914797,0.21087 15.0373107,0.426108 16.4378187,0.255532 z M 131.51729,29.749464 c -0.88901,-0.658191 -1.33404,-1.522577 -1.33404,-2.591133 0,-2.544269 2.83183,-4.037711 4.86436,-2.565355 1.9297,1.397868 1.69571,4.468251 -0.41377,5.429384 -0.76406,0.348131 -2.48078,0.197808 -3.11655,-0.272896 z"
       id="path1106" />
    <path
       style="fill:#ff5722;fill-opacity:1;stroke:#181818;stroke-width:0.2;stroke-linecap:square;stroke-linejoin:miter;stroke-miterlimit:0;stroke-dasharray:none;stroke-opacity:1;paint-order:stroke markers fill"
       d="m 28.696647,62.873352 c 8.304046,-1.009295 24.307252,-1.092806 45.735121,-0.238662 7.985553,0.318315 26.876912,0.312163 29.740732,-0.0097 5.33632,-0.599718 10.68736,-2.527929 11.25328,-4.055049 0.334,-0.901311 -0.93458,-3.198992 -4.07094,-7.373347 -1.07815,-1.434981 -1.96028,-2.778657 -1.96028,-2.985955 0,-0.684096 0.55707,-1.470504 1.37122,-1.93574 1.79229,-1.024178 4.94525,-1.732737 13.13131,-2.950993 2.83119,-0.42133 5.59514,-0.859369 6.14211,-0.97341 2.35167,-0.490312 4.68651,-2.102604 7.13285,-4.925496 1.60595,-1.853137 2.60557,-3.471746 3.50199,-5.670484 0.60442,-1.482537 0.65402,-1.759506 0.67975,-3.796107 0.0264,-2.091118 0.002,-2.240475 -0.50275,-3.102128 -1.61414,-2.754322 -5.06854,-5.031735 -9.46385,-6.239316 -4.51238,-1.239746 -8.15533,-0.324886 -11.15503,2.80138 -2.41604,2.517971 -4.93418,7.658865 -6.39258,13.05069 -0.15979,0.590762 -0.50862,1.333296 -0.77517,1.650077 -0.54747,0.650631 -1.09596,0.830077 -3.71931,1.21681 -1.82925,0.269669 -1.85611,0.281324 -3.1762,1.378281 -4.20713,3.49599 -6.269087,4.695764 -9.832884,5.72139 -7.546142,2.1717 -18.267445,3.826306 -28.235352,4.357536 -4.774004,0.254424 -23.782808,0.247418 -26.552826,-0.0098 -1.19535,-0.110993 -3.363989,-0.44872 -4.819197,-0.750504 C 28.863433,46.401719 16.940599,44.04122 14.733016,43.678096 l -2.529853,-0.416132 -0.35305,0.452631 c -1.06486,1.365221 -4.3246114,7.670665 -5.5587551,10.752484 -0.5865997,1.46482 -0.7343193,2.098233 -0.8023092,3.440234 -0.045831,0.904666 -0.029363,1.859857 0.036592,2.122649 0.2017713,0.80392 1.1781631,1.724424 2.4244776,2.285703 1.0397093,0.468236 1.5131309,0.551929 3.8320947,0.677458 4.192424,0.226944 14.672281,0.152715 16.914434,-0.119801 z M 131.35979,29.740005 c -1.56968,-1.117706 -1.57243,-4.043689 -0.005,-5.1599 2.16846,-1.544078 5.06492,-0.0148 5.06492,2.674177 0,0.997069 -0.57702,2.111491 -1.36185,2.630178 -0.82727,0.546737 -2.83782,0.468204 -3.69822,-0.144455 z"
       id="path1108" />
    <path
       style="fill:#181818;fill-opacity:1;stroke:#181818;stroke-width:0.2;stroke-linecap:square;stroke-linejoin:miter;stroke-miterlimit:0;stroke-dasharray:none;stroke-opacity:1;paint-order:stroke markers fill"
       d="m 135.02852,29.198922 c 1.15727,-1.045528 1.34941,-2.32899 0.5451,-3.641316 -0.6911,-1.127608 -2.72238,-1.576176 -3.73664,-0.825159 -2.37052,1.755289 -1.35653,5.145311 1.53969,5.147591 0.76548,5.3e-4 1.00792,-0.09937 1.65185,-0.681116 z"
       id="path1150" />
    <path
       style="fill:#181818;fill-opacity:1;stroke:#181818;stroke-width:0.2;stroke-linecap:square;stroke-linejoin:miter;stroke-miterlimit:0;stroke-dasharray:none;stroke-opacity:1;paint-order:stroke markers fill"
       d="m 134.24343,29.687398 c 0,-0.0737 0.0375,-0.09647 0.0834,-0.0506 0.0459,0.04587 0.19422,-0.04934 0.32965,-0.211587 0.13542,-0.162248 0.24823,-0.240575 0.25067,-0.174059 0.007,0.192357 0.53899,-0.343077 0.53899,-0.542555 0,-0.09886 0.0561,-0.179739 0.12463,-0.179739 0.10821,0 0.31723,-0.428866 0.33652,-0.690446 0.004,-0.049 0.0517,-0.134191 0.1068,-0.189317 0.14875,-0.148752 0.12142,-0.96225 -0.0356,-1.059289 -0.0747,-0.04616 -0.10379,-0.135763 -0.0646,-0.199105 0.0392,-0.06334 0.009,-0.153545 -0.0668,-0.200452 -0.0759,-0.04691 -0.10339,-0.141265 -0.0611,-0.209686 0.0423,-0.06842 0.003,-0.124401 -0.0869,-0.124401 -0.0901,0 -0.1311,-0.03269 -0.0911,-0.07265 0.1082,-0.108201 -0.98049,-1.135367 -1.11516,-1.052137 -0.0636,0.03931 -0.11566,0.0042 -0.11566,-0.07793 0,-0.08217 -0.056,-0.114811 -0.1244,-0.07252 -0.0684,0.04229 -0.15835,0.02195 -0.19984,-0.04519 -0.10172,-0.164582 -1.57058,-0.150479 -1.78051,0.0171 -0.0919,0.07334 -0.16704,0.100128 -0.16704,0.05954 0,-0.04059 -0.25868,0.177553 -0.57484,0.484768 -0.31616,0.307214 -0.55316,0.603673 -0.52665,0.658797 0.0265,0.05513 -0.019,0.100227 -0.10122,0.100227 -0.0822,0 -0.11224,0.06014 -0.0668,0.133634 0.0454,0.0735 0.0154,0.133635 -0.0668,0.133635 -0.0822,0 -0.11481,0.05598 -0.0725,0.124401 0.0423,0.06842 0.0227,0.157884 -0.0435,0.198809 -0.0662,0.04092 -0.1204,0.376567 -0.1204,0.74587 0,0.369303 0.0542,0.704943 0.1204,0.745868 0.0662,0.04092 0.0858,0.130387 0.0435,0.198808 -0.0423,0.06842 -0.01,0.124402 0.0725,0.124402 0.0822,0 0.11614,0.05383 0.0755,0.119631 -0.0407,0.0658 0.0245,0.157417 0.14488,0.203597 0.12035,0.04618 0.18,0.122772 0.13258,0.170201 -0.11651,0.116504 0.31134,0.575649 0.53641,0.575649 0.0989,0 0.17974,0.06368 0.17974,0.14152 0,0.07784 0.0601,0.104357 0.13364,0.05893 0.0735,-0.04542 0.13363,-0.01892 0.13363,0.05893 0,0.07784 0.0451,0.1344 0.10023,0.125695 0.0551,-0.0087 0.13029,1.75e-4 0.16704,0.01974 0.20548,0.109363 1.87089,0.06656 1.87089,-0.04808 z"
       id="path1152" />
    <path
       style="fill:#181818;fill-opacity:1;stroke:#181818;stroke-width:0.2;stroke-linecap:square;stroke-linejoin:miter;stroke-miterlimit:0;stroke-dasharray:none;stroke-opacity:1;paint-order:stroke markers fill"
       d="m 134.7366,29.463804 c 0.80383,-0.591148 1.3785,-1.531504 1.37697,-2.253226 -0.003,-1.557582 -1.29409,-2.814672 -2.89711,-2.821462 -0.89489,-0.0038 -1.24112,0.13617 -1.82558,0.737964 -1.82953,1.883806 -0.63758,4.738126 1.97861,4.738126 0.70253,0 0.90021,-0.05804 1.36711,-0.401402 z"
       id="path1154" />
    <path
       style="fill:#181818;fill-opacity:1;stroke:#181818;stroke-width:0.2;stroke-linecap:square;stroke-linejoin:miter;stroke-miterlimit:0;stroke-dasharray:none;stroke-opacity:1;paint-order:stroke markers fill"
       d="m 134.57751,29.61437 c 0.93539,-0.582916 1.5368,-1.571043 1.5368,-2.524963 0,-0.284705 -0.15512,-0.823878 -0.34891,-1.212769 -0.49329,-0.989911 -1.36664,-1.487449 -2.61407,-1.489203 -0.80127,-0.0011 -0.94925,0.04277 -1.45993,0.433059 -1.71688,1.312123 -1.55449,3.835143 0.30832,4.790447 0.67295,0.34511 2.02662,0.346911 2.57779,0.0034 z"
       id="path1156" />
    <path
       style="fill:#181818;fill-opacity:1;stroke:#181818;stroke-width:0.2;stroke-linecap:square;stroke-linejoin:miter;stroke-miterlimit:0;stroke-dasharray:none;stroke-opacity:1;paint-order:stroke markers fill"
       d="m 134.0195,30.189085 c 0.40301,-0.05872 0.78994,-0.178898 0.75548,-0.234656 -0.0163,-0.02633 -0.0747,-0.03206 -0.1316,-0.01291 -0.14502,0.04883 -0.37852,0.06532 -1.21263,0.08563 -1.18978,0.02896 -1.5763,-0.1006 -2.23529,-0.749292 -0.4928,-0.48509 -0.75241,-0.962388 -0.86353,-1.587561 -0.25348,-1.426215 0.60847,-2.910621 1.96596,-3.385671 0.42705,-0.149445 1.08088,-0.198293 1.52148,-0.113669 0.33199,0.06376 1.06684,0.396601 1.10707,0.501423 0.0144,0.03743 0.0428,0.05776 0.0632,0.04516 0.0717,-0.04431 0.74485,0.732715 0.91459,1.055728 0.16338,0.310913 0.318,0.824522 0.30795,1.022957 l -0.005,0.09449 -0.0222,-0.09449 c -0.0122,-0.05197 -0.085,-0.284252 -0.16175,-0.516177 -0.40118,-1.212554 -1.34056,-1.911536 -2.68443,-1.997459 -0.47701,-0.0305 -0.97044,0.03729 -1.24742,0.171369 -0.47393,0.229426 -1.05504,0.819342 -1.34533,1.365725 -0.43398,0.816808 -0.41322,1.967394 0.0494,2.73762 0.43125,0.718028 1.07685,1.172855 1.85821,1.309113 1.11063,0.193677 1.7783,0.02461 2.48441,-0.629161 0.51434,-0.476192 0.85894,-1.04272 1.00821,-1.657503 0.0894,-0.368141 0.0876,-0.171458 -0.002,0.269711 -0.0962,0.471257 -0.33719,0.971005 -0.62111,1.287888 -0.14662,0.163645 -0.19273,0.24008 -0.1314,0.217816 0.0645,-0.02342 0.0507,0.0013 -0.0434,0.07778 -0.1299,0.105614 -0.20511,0.26897 -0.12384,0.26897 0.0534,0 0.38192,-0.365416 0.55227,-0.614211 0.41755,-0.609865 0.60575,-1.201359 0.6013,-1.889879 -0.004,-0.571611 -0.0897,-0.951358 -0.32616,-1.441035 -0.31138,-0.644669 -0.81633,-1.149861 -1.46412,-1.464801 -0.43603,-0.211985 -0.8508,-0.305409 -1.35974,-0.306264 -0.44883,-7.67e-4 -1.04425,0.119757 -0.99394,0.201168 0.0183,0.02957 0.007,0.03461 -0.0284,0.01272 -0.0686,-0.04241 -0.43709,0.111145 -0.40219,0.167614 0.013,0.02106 -0.022,0.06273 -0.0779,0.09261 -0.0791,0.04236 -0.0936,0.04153 -0.0656,-0.0038 0.0232,-0.0376 0.0127,-0.05037 -0.0297,-0.03621 -0.0361,0.01203 -0.0656,0.0432 -0.0656,0.06926 0,0.02606 -0.0996,0.133592 -0.22134,0.238955 -0.12174,0.105362 -0.28866,0.268233 -0.37093,0.361935 -0.0823,0.0937 -0.17231,0.156317 -0.2001,0.139146 -0.0321,-0.01983 -0.0392,-0.0016 -0.0194,0.04985 0.0178,0.04651 0.0119,0.06921 -0.0139,0.05325 -0.0248,-0.0153 -0.0965,0.07395 -0.15944,0.198346 -0.34915,0.690161 -0.45566,1.64051 -0.27263,2.43254 0.1027,0.444403 0.3724,1.053677 0.46642,1.053677 0.0281,0 0.0688,0.01934 0.0905,0.04301 0.0232,0.0254 0.0127,0.02754 -0.0258,0.0052 -0.0446,-0.02585 -0.0583,-0.01704 -0.0433,0.02786 0.012,0.0361 0.0422,0.06564 0.0671,0.06564 0.0659,0 0.67704,0.555948 0.65333,0.594307 -0.011,0.01783 0.0807,0.07553 0.20374,0.128196 0.66343,0.283874 1.55936,0.396021 2.30081,0.288002 z"
       id="path1158" />
    <path
       style="fill:#f7f7f7;fill-opacity:1;stroke:#181818;stroke-width:0.2;stroke-linecap:square;stroke-linejoin:miter;stroke-miterlimit:0;stroke-dasharray:none;stroke-opacity:1;paint-order:stroke markers fill"
       d="m 134.36864,30.19943 c 0.19156,-0.04857 0.39134,-0.132096 0.44549,-0.186248 l 0.0982,-0.09818 -0.13704,-0.0521 c -0.0995,-0.03785 -0.16817,-0.03792 -0.25079,-2.65e-4 -0.21635,0.09857 -0.15734,0.007 0.0709,-0.11013 0.12602,-0.06464 0.38691,-0.262461 0.57975,-0.439608 0.34844,-0.320069 0.34977,-0.320757 0.21282,-0.110074 -0.0758,0.116604 -0.1698,0.236857 -0.20889,0.267226 -0.23015,0.178806 -0.26254,0.213138 -0.17492,0.185415 0.0597,-0.01889 0.0742,-0.0095 0.0486,0.03158 -0.0595,0.0952 -0.0595,0.183539 1e-5,0.161592 0.0304,-0.01122 0.0507,-0.04213 0.0451,-0.0687 -0.006,-0.02657 0.033,-0.03702 0.0857,-0.02323 0.13056,0.03415 0.36423,-0.197538 0.67837,-0.672605 0.41076,-0.621178 0.59263,-1.197168 0.59263,-1.876928 0,-1.491347 -1.02103,-2.815368 -2.45685,-3.185928 -0.34615,-0.08934 -1.1383,-0.103463 -1.44103,-0.0257 -0.29756,0.07643 -0.68951,0.235092 -0.77751,0.314734 -0.0442,0.04001 -0.10816,0.07274 -0.14211,0.07274 -0.034,0 -0.10798,0.04784 -0.16451,0.106305 -0.0565,0.05847 -0.25882,0.254899 -0.44955,0.436512 -0.53624,0.510619 -0.74228,0.957816 -0.85344,1.852383 -0.0874,0.703559 0.10667,1.655879 0.44465,2.181587 0.15759,0.245129 0.85534,0.889709 1.09653,1.012981 0.55637,0.284359 1.95873,0.403945 2.6579,0.226653 z"
       id="path1160" />
    <path
       style="fill:#f7f7f7;stroke:#181818;stroke-width:0.2;stroke-linecap:square;stroke-miterlimit:0;paint-order:stroke markers fill"
       d="m 134.36609,30.169662 c 0.48006,-0.12899 0.63609,-0.343763 0.20701,-0.284951 -0.11351,0.01556 -0.20638,0.01887 -0.20638,0.0073 0,-0.01154 0.13017,-0.109352 0.28926,-0.217387 0.15909,-0.108037 0.40556,-0.301757 0.54771,-0.430488 0.14215,-0.128733 0.26954,-0.222972 0.2831,-0.209417 0.0348,0.03482 -0.14618,0.316679 -0.2903,0.452067 -0.1502,0.141105 -0.15533,0.239003 -0.0125,0.239003 0.14067,0 0.38607,-0.257151 0.68248,-0.71514 0.57605,-0.890098 0.71014,-1.869969 0.38832,-2.837682 -0.31305,-0.941326 -1.14869,-1.767174 -2.10065,-2.076021 -0.26956,-0.08746 -0.43995,-0.107704 -0.92132,-0.109485 -0.65973,-0.0024 -0.86757,0.0477 -1.43452,0.346066 -0.38048,0.200232 -1.06117,0.879396 -1.2714,1.268545 -0.44688,0.8272 -0.44888,2.175945 -0.005,3.117194 0.21296,0.451205 0.98892,1.16527 1.43226,1.318017 0.58616,0.201949 1.88691,0.273336 2.41161,0.13235 z"
       id="path947" />
    <path
       style="fill:#f7f7f7;stroke:#181818;stroke-width:0.2;stroke-linecap:square;stroke-miterlimit:0;paint-order:stroke markers fill"
       d="m 134.45271,30.111546 c 0.36575,-0.130908 0.40996,-0.196739 0.13214,-0.196739 -0.1243,0 -0.21892,-0.01902 -0.21025,-0.04229 0.009,-0.02326 0.18583,-0.17132 0.39372,-0.329025 0.20789,-0.157702 0.44754,-0.343736 0.53256,-0.413403 0.085,-0.06967 0.16913,-0.112118 0.18691,-0.09433 0.0434,0.04338 -0.1137,0.328599 -0.25308,0.459541 -0.13393,0.125818 -0.14233,0.183274 -0.0268,0.183274 0.17069,0 0.65171,-0.633319 0.90217,-1.187807 0.71618,-1.585502 -0.0139,-3.483119 -1.62523,-4.224517 -0.42596,-0.195985 -0.72821,-0.257318 -1.26807,-0.257318 -0.84383,0 -1.41511,0.25171 -2.09052,0.921095 -0.51625,0.511643 -0.739,0.913418 -0.85214,1.537064 -0.13212,0.728213 -0.002,1.720308 0.30001,2.28065 0.164,0.304692 0.7631,0.905645 1.1026,1.106009 0.41273,0.243594 0.72113,0.303839 1.67419,0.327051 0.75005,0.01826 0.88012,0.01008 1.1018,-0.06925 z"
       id="path949" />
    <path
       style="fill:#f7f7f7;stroke:#181818;stroke-width:0.2;stroke-linecap:square;stroke-miterlimit:0;paint-order:stroke markers fill"
       d="m 134.50342,30.061561 c 0.15852,-0.0643 0.18831,-0.09159 0.12607,-0.115477 -0.0448,-0.0172 -0.12229,-0.03128 -0.17214,-0.03128 -0.0498,0 -0.0906,-0.02024 -0.0906,-0.04498 0,-0.05463 0.96959,-0.822843 1.0657,-0.844364 0.12286,-0.02751 0.0737,0.166232 -0.0999,0.393626 -0.25662,0.336192 -0.0534,0.253219 0.22437,-0.09163 0.30292,-0.376012 0.58802,-0.936805 0.70117,-1.379223 0.4135,-1.616746 -0.59834,-3.344313 -2.23794,-3.820956 -0.31677,-0.09209 -1.11226,-0.105988 -1.46699,-0.02563 -0.72829,0.164976 -1.64673,0.920945 -2.0112,1.655425 -0.21816,0.439641 -0.26234,0.677071 -0.25935,1.393787 0.005,1.097021 0.18541,1.554245 0.87929,2.22314 0.68573,0.661051 1.0446,0.776629 2.40162,0.77347 0.59049,-0.0013 0.77253,-0.01802 0.9399,-0.08591 z"
       id="path951" />
    <path
       style="fill:#f7f7f7;stroke:#181818;stroke-width:0.2;stroke-linecap:square;stroke-miterlimit:0;paint-order:stroke markers fill"
       d="m 134.48484,30.038989 0.14174,-0.06054 -0.12993,-0.03272 c -0.0715,-0.01799 -0.12892,-0.05889 -0.12769,-0.09088 0.004,-0.09197 0.95212,-0.837734 1.06556,-0.837734 0.0897,0 0.084,0.189648 -0.01,0.323273 -0.0416,0.05943 -0.065,0.118759 -0.0519,0.131832 0.0455,0.04554 0.46162,-0.590799 0.64222,-0.982216 0.23659,-0.51277 0.29306,-0.761359 0.29209,-1.285914 -9.8e-4,-0.521761 -0.0862,-0.875493 -0.33158,-1.377041 -0.36936,-0.754819 -1.06002,-1.369487 -1.82166,-1.621228 -0.63226,-0.208979 -1.49185,-0.172643 -2.02554,0.08562 -0.65533,0.317133 -1.28484,0.927392 -1.57902,1.530747 -0.20286,0.416046 -0.26483,0.826081 -0.233,1.541676 0.0427,0.959612 0.24195,1.399064 0.92399,2.037673 0.39292,0.367892 0.76816,0.575191 1.1839,0.654034 0.37285,0.07071 1.88452,0.05854 2.0604,-0.01659 z"
       id="path953" />
    <path
       style="fill:#f7f7f7;stroke:#181818;stroke-width:0.2;stroke-linecap:square;stroke-miterlimit:0;paint-order:stroke markers fill"
       d="m 134.46122,30.010936 c 0.0825,-0.02757 0.0928,-0.04088 0.034,-0.04417 -0.11321,-0.0063 -0.15402,-0.129525 -0.0747,-0.225412 0.13242,-0.160031 0.9039,-0.724239 0.9903,-0.724239 0.0663,0 0.0901,0.0341 0.0909,0.129929 l 0.001,0.129932 0.091,-0.118118 c 0.16367,-0.212331 0.51131,-0.915033 0.59604,-1.204799 0.10777,-0.368573 0.10923,-1.076836 0.003,-1.481825 -0.22363,-0.853018 -0.91983,-1.708919 -1.68867,-2.076057 -0.46908,-0.223994 -0.76726,-0.293003 -1.26194,-0.292053 -0.66743,0.0013 -1.17173,0.177818 -1.69629,0.593811 -0.57567,0.456522 -0.98926,1.035223 -1.1284,1.578854 -0.11326,0.442552 -0.0723,1.603975 0.0709,2.007999 0.21176,0.597628 0.82456,1.257012 1.4605,1.571525 l 0.35711,0.176614 1.0185,0.0087 c 0.56018,0.0048 1.07166,-0.009 1.13662,-0.03073 z"
       id="path955" />
    <path
       style="fill:#f7f7f7;stroke:#181818;stroke-width:0.2;stroke-linecap:square;stroke-miterlimit:0;paint-order:stroke markers fill"
       d="m 134.42165,29.967801 c -0.14741,-0.09344 -0.032,-0.265055 0.39392,-0.585931 0.48333,-0.364103 0.61263,-0.417279 0.70557,-0.290176 0.0565,0.07733 0.0918,0.02754 0.34796,-0.492088 0.33238,-0.674108 0.41679,-1.047888 0.3682,-1.630471 -0.0614,-0.736467 -0.37879,-1.380615 -0.97013,-1.968982 -0.37874,-0.376838 -0.80536,-0.635614 -1.27842,-0.775451 -0.31018,-0.09169 -1.0637,-0.103956 -1.39907,-0.02278 -0.75577,0.182938 -1.64531,0.950129 -2.02228,1.744133 l -0.1458,0.307106 v 0.874071 c 0,1.019392 0.0359,1.171019 0.40032,1.68992 0.2995,0.426461 0.68608,0.766625 1.13907,1.0023 l 0.36492,0.189847 1.07946,-7.94e-4 c 0.60894,-5.29e-4 1.05192,-0.01818 1.01628,-0.04078 z"
       id="path957" />
    <path
       style="fill:#f7f7f7;stroke:#181818;stroke-width:0.2;stroke-linecap:square;stroke-miterlimit:0;paint-order:stroke markers fill"
       d="m 133.88033,29.974085 c 0.38635,-0.01225 0.4772,-0.02825 0.45715,-0.08051 -0.0363,-0.09466 0.25462,-0.395758 0.63753,-0.659768 0.27941,-0.192648 0.35604,-0.224631 0.47921,-0.199995 0.14655,0.02931 0.14671,0.02911 0.40269,-0.501595 0.31053,-0.643776 0.37127,-0.911339 0.34034,-1.499269 -0.039,-0.741258 -0.31133,-1.335051 -0.88499,-1.929553 -0.54179,-0.561484 -1.05654,-0.832141 -1.7276,-0.908392 -0.92222,-0.104791 -1.59305,0.148263 -2.31451,0.873093 -0.32816,0.329697 -0.47434,0.520544 -0.63095,0.823766 l -0.20383,0.394654 0.0185,0.904639 c 0.0209,1.023324 0.0429,1.106271 0.4394,1.661954 0.26334,0.369038 0.61429,0.672447 1.09412,0.945883 l 0.36904,0.210307 0.52086,-0.01 c 0.28647,-0.0055 0.73784,-0.01685 1.00303,-0.02524 z"
       id="path959" />
    <path
       style="fill:#f7f7f7;stroke:#181818;stroke-width:0.2;stroke-linecap:square;stroke-miterlimit:0;paint-order:stroke markers fill"
       d="m 133.33526,29.962054 c 0.5111,-0.01299 0.93633,-0.03425 0.94494,-0.04725 0.009,-0.01299 0.0508,-0.08741 0.0938,-0.165364 0.043,-0.07796 0.25086,-0.274625 0.46196,-0.437036 0.29343,-0.225753 0.42073,-0.295294 0.54056,-0.295294 0.20212,0 0.26281,-0.07265 0.49337,-0.590587 0.25396,-0.570492 0.29166,-0.729332 0.29197,-1.230307 5.2e-4,-0.84894 -0.25302,-1.414613 -0.94214,-2.102037 -0.50398,-0.502735 -0.76853,-0.665375 -1.30587,-0.802803 -0.89357,-0.228536 -1.65623,-0.04057 -2.39468,0.590201 -0.38752,0.331018 -0.65699,0.66365 -0.90438,1.116379 l -0.17036,0.311761 0.0406,0.92561 c 0.0382,0.872087 0.048,0.940117 0.16859,1.17652 0.29212,0.572558 0.80306,1.067384 1.46892,1.422598 l 0.28348,0.151231 z"
       id="path961" />
    <path
       style="fill:#181818;fill-opacity:1;stroke:#181818;stroke-width:0.2;stroke-linecap:square;stroke-miterlimit:0;paint-order:stroke markers fill"
       d="m 133.81157,29.926833 c 0.25336,-0.0085 0.46066,-0.03588 0.46066,-0.06085 0,-0.175953 0.80203,-0.810278 1.1103,-0.878141 0.17849,-0.03929 0.20018,-0.06392 0.39042,-0.443201 0.3127,-0.623427 0.3564,-0.819417 0.33086,-1.483725 -0.0259,-0.673662 -0.11464,-0.953026 -0.44758,-1.408963 -0.30641,-0.419603 -0.86131,-0.941714 -1.18189,-1.112047 -0.59046,-0.313736 -1.3742,-0.394392 -1.95025,-0.200705 -0.68435,0.230101 -1.39077,0.836228 -1.81425,1.556678 l -0.23147,0.393795 0.032,0.85852 c 0.0176,0.472186 0.0528,0.933977 0.0783,1.0262 0.13015,0.47136 0.75038,1.155374 1.39733,1.541044 l 0.41369,0.246613 0.47564,-0.0099 c 0.26161,-0.0055 0.68295,-0.01683 0.93631,-0.02532 z"
       id="path963" />
    <path
       style="fill:#181818;fill-opacity:1;stroke:#181818;stroke-width:0.2;stroke-linecap:square;stroke-miterlimit:0;paint-order:stroke markers fill"
       d="m 134.41397,30.267912 c 0.30392,-0.0839 0.50175,-0.216466 0.48238,-0.323254 -0.009,-0.05129 0.01,-0.06656 0.0594,-0.04752 0.0936,0.03591 0.38721,-0.09953 0.56305,-0.259741 0.21765,-0.198298 0.6633,-0.907124 0.79685,-1.267421 0.49844,-1.344713 0.0817,-2.860696 -1.03697,-3.771933 -0.56476,-0.460046 -1.14931,-0.680055 -1.90419,-0.716681 -0.65772,-0.03191 -0.97583,0.03511 -1.55002,0.326563 -0.32114,0.163007 -0.47141,0.281104 -0.82682,0.649755 -0.48856,0.506765 -0.65117,0.77391 -0.79693,1.309277 -0.14021,0.514943 -0.1404,1.442012 -3.7e-4,1.961746 0.16716,0.620572 0.31317,0.870243 0.77461,1.32457 0.49782,0.490141 0.701,0.617313 1.19883,0.750335 0.50316,0.13445 1.84637,0.173005 2.24016,0.0643 z m 0.37211,-0.365704 c 0.0467,-0.04632 0.0521,-0.04089 0.0265,0.02646 -0.0177,0.0466 -0.0442,0.07282 -0.0587,0.05827 -0.0145,-0.01455 -3e-5,-0.05267 0.0323,-0.08472 z m 0.19485,-0.109456 c 0,-0.08343 0.10171,-0.06891 0.13092,0.01871 0.0103,0.03086 -0.015,0.05611 -0.0561,0.05611 -0.0411,0 -0.0748,-0.03366 -0.0748,-0.07481 z m 0.15749,-0.185049 c 0,-0.03898 0.0103,-0.06057 0.0229,-0.04798 0.0126,0.01259 0.0482,-0.01164 0.079,-0.05388 0.0516,-0.07061 0.0586,-0.0704 0.0866,0.0026 0.0211,0.05485 -0.002,0.0924 -0.0751,0.121751 -0.058,0.02334 -0.10729,0.04379 -0.10946,0.04543 -0.002,0.0016 -0.004,-0.0289 -0.004,-0.06788 z m -0.20473,0.05003 c 0,-0.01146 0.0213,-0.03397 0.0472,-0.05003 0.026,-0.01606 0.0472,-0.0067 0.0472,0.02082 0,0.02752 -0.0213,0.05004 -0.0472,0.05004 -0.026,0 -0.0472,-0.0094 -0.0472,-0.02082 z m 0.42692,-0.227213 c 9.2e-4,-0.03248 0.0539,-0.122841 0.11761,-0.200801 0.10089,-0.123372 0.11334,-0.12836 0.0961,-0.0385 -0.0416,0.216699 -0.21877,0.415099 -0.21371,0.239301 z"
       id="path965" />
    <path
       style="fill:#181818;fill-opacity:1;stroke:#181818;stroke-width:0.2;stroke-linecap:square;stroke-miterlimit:0;paint-order:stroke markers fill"
       d="m 134.555,30.297747 c 0.14254,-0.05085 0.3028,-0.147185 0.35613,-0.214075 0.0533,-0.06689 0.1236,-0.121618 0.15614,-0.121618 0.11097,0 0.40945,-0.180382 0.55995,-0.338399 0.25562,-0.268399 0.67129,-0.981745 0.80542,-1.382226 0.11486,-0.342935 0.12786,-0.449305 0.12756,-1.043326 -3.1e-4,-0.599525 -0.0126,-0.696849 -0.13107,-1.039434 -0.18734,-0.541621 -0.4686,-0.987255 -0.87969,-1.393787 -0.40748,-0.402973 -0.73882,-0.614488 -1.23778,-0.790148 -0.28395,-0.09997 -0.45925,-0.126063 -0.97062,-0.144494 -0.72505,-0.02613 -0.9064,0.0084 -1.47841,0.28126 -0.34368,0.163961 -0.46974,0.260689 -0.87407,0.670702 -0.7708,0.78163 -0.94131,1.210702 -0.94131,2.368654 0,1.147768 0.1892,1.654934 0.87216,2.337898 0.74717,0.747165 1.03576,0.851773 2.4315,0.881393 0.84946,0.01802 0.97113,0.01072 1.20409,-0.0724 z"
       id="path967" />
    <path
       style="fill:#181818;fill-opacity:1;stroke:#181818;stroke-width:0.2;stroke-linecap:square;stroke-miterlimit:0;paint-order:stroke markers fill"
       d="m 134.56049,30.369565 c 0.0936,-0.03345 0.26367,-0.125367 0.37798,-0.204266 0.1143,-0.0789 0.30703,-0.199279 0.42828,-0.26751 0.12126,-0.06823 0.29135,-0.20697 0.37798,-0.308308 0.22091,-0.2584 0.58295,-0.880377 0.73588,-1.26424 0.12271,-0.308007 0.12908,-0.36344 0.12959,-1.127138 5.3e-4,-0.796357 -7.7e-4,-0.806419 -0.15217,-1.181175 -0.20696,-0.512253 -0.48666,-0.927494 -0.8911,-1.322917 -0.61814,-0.604351 -1.18024,-0.85874 -2.0445,-0.925268 -0.7088,-0.05456 -1.09273,0.002 -1.58355,0.233388 -0.46304,0.218267 -0.82812,0.509671 -1.24276,0.991956 -0.59487,0.691923 -0.75486,1.231486 -0.70955,2.393005 0.0415,1.064622 0.23686,1.509011 0.98591,2.243119 0.48358,0.473932 0.87791,0.68295 1.4251,0.755388 0.52993,0.07015 1.95125,0.05962 2.16291,-0.01603 z"
       id="path969" />
    <path
       style="fill:#ff5722;fill-opacity:1;stroke:#181818;stroke-width:0.2;stroke-linecap:square;stroke-miterlimit:0;paint-order:stroke markers fill"
       d="m 29.783624,62.687096 c 5.027407,-0.553286 12.009663,-0.720262 24.662945,-0.589801 6.808298,0.0702 13.952048,0.206541 15.875,0.302993 5.891294,0.295486 28.039157,0.444523 31.844491,0.214286 5.43467,-0.328816 10.17277,-1.601687 12.52046,-3.363561 1.1552,-0.866939 0.71615,-2.16127 -2.07302,-6.111356 -3.40431,-4.821261 -3.38491,-4.789781 -3.26124,-5.290884 0.444,-1.799 3.10606,-2.773473 11.05126,-4.045415 2.33867,-0.374396 5.5278,-0.884214 7.08695,-1.13293 3.4908,-0.556855 4.62033,-0.973307 6.51775,-2.403057 2.94935,-2.222397 5.42326,-5.512218 6.70242,-8.912908 0.41697,-1.108532 0.48146,-1.580292 0.48146,-3.52199 v -2.242006 l -0.78458,-1.174926 c -1.08551,-1.625565 -2.88082,-3.052156 -5.35753,-4.257213 -3.01308,-1.466033 -4.60794,-1.876924 -7.27604,-1.874563 -2.45826,0.0022 -3.67991,0.337294 -5.37877,1.47548 -3.08406,2.06624 -5.82033,6.526873 -7.87067,12.830664 -0.53296,1.638599 -1.14341,3.200969 -1.35655,3.471934 -0.52474,0.667096 -1.29066,0.955833 -3.46261,1.305335 -1.01086,0.16266 -2.01355,0.389747 -2.22822,0.504629 -0.21466,0.114887 -1.19981,0.861377 -2.18922,1.658866 -4.25871,3.432633 -6.134246,4.339018 -11.934312,5.767459 -6.697382,1.649431 -14.928236,2.854425 -24.071463,3.524054 -2.058665,0.15077 -7.455932,0.235635 -15.024552,0.236236 -13.852438,0.0011 -11.722497,0.217818 -25.96188,-2.641597 -5.418251,-1.088041 -11.239767,-2.221678 -12.936699,-2.519196 l -3.085335,-0.540943 -0.64516,0.87549 c -0.871979,1.183285 -5.0063267,9.441937 -5.5239072,11.034392 -0.5758127,1.771621 -0.7514299,4.22511 -0.3570208,4.987814 0.4418515,0.854445 1.4677284,1.672865 2.7121458,2.163678 1.0894324,0.429683 1.2059338,0.435194 10.0791062,0.476665 6.423549,0.03002 9.621999,-0.02904 11.244791,-0.207629 z M 131.21301,30.109649 c -0.97003,-0.690721 -1.36019,-1.518727 -1.36019,-2.886617 0,-1.476008 0.39848,-2.311887 1.46146,-3.065618 0.63238,-0.448402 0.94411,-0.537346 1.84556,-0.526579 2.05154,0.02451 3.4792,1.320836 3.64406,3.308839 0.0711,0.857276 9.3e-4,1.182401 -0.42337,1.961999 -0.74475,1.368351 -1.54119,1.783765 -3.24372,1.691896 -0.99689,-0.05379 -1.49609,-0.179366 -1.9238,-0.48392 z"
       id="path1107" />
    <path
       style="fill:#ff5722;fill-opacity:1;stroke:#181818;stroke-width:0.2;stroke-linecap:square;stroke-miterlimit:0;paint-order:stroke markers fill"
       d="m 31.012045,62.47123 c 3.74736,-0.384325 24.41195,-0.542827 34.017857,-0.260929 11.929928,0.350099 35.816418,0.470223 38.500818,0.193617 4.97619,-0.51276 9.04057,-1.676154 10.95377,-3.135421 1.24067,-0.946304 0.80031,-2.135381 -2.58468,-6.979288 -2.54079,-3.635843 -2.70526,-3.93333 -2.55438,-4.620268 0.15411,-0.701685 0.72021,-1.206624 2.01982,-1.801603 1.70371,-0.779986 4.31018,-1.354833 11.5895,-2.556028 3.74197,-0.617477 7.23047,-1.250043 7.75223,-1.405703 3.58052,-1.068181 7.91187,-5.64376 9.79255,-10.344716 0.3866,-0.966337 0.50352,-1.661512 0.59877,-3.559918 l 0.11835,-2.359084 -0.95014,-1.267358 c -1.19036,-1.587762 -2.6306,-2.730845 -4.94116,-3.921664 -2.69176,-1.387284 -4.45777,-1.923813 -6.70095,-2.035806 -3.30233,-0.164873 -5.24826,0.470577 -7.32993,2.393608 -2.72194,2.514515 -4.57937,5.792891 -6.67006,11.772705 -1.48739,4.254267 -1.41277,4.180493 -4.93433,4.877866 l -2.11438,0.418708 -1.94887,1.519992 c -2.49555,1.946373 -4.10172,3.04519 -5.43509,3.718271 -3.451258,1.742194 -12.619772,3.795628 -21.932671,4.912175 -8.047236,0.964803 -9.229601,1.017963 -22.962052,1.032357 -15.262662,0.01601 -13.026261,0.227036 -27.006635,-2.548459 -5.207436,-1.033822 -10.912004,-2.143818 -12.676819,-2.46666 l -3.208751,-0.586984 -0.533818,0.634524 c -0.2936,0.348986 -1.668719,2.901281 -3.055818,5.671764 -2.7105425,5.41382 -3.1275337,6.618039 -3.1275337,9.031886 0,1.263462 0.035049,1.37111 0.6782091,2.083011 0.3730148,0.412883 1.1596793,0.987179 1.7481417,1.276213 l 1.0699274,0.525518 9.6383945,0.02466 c 7.0133,0.01794 10.333268,-0.0466 12.18973,-0.236993 z M 131.36711,30.220139 c -1.11904,-0.591759 -1.51448,-1.392102 -1.51358,-3.063396 7.9e-4,-1.503963 0.31698,-2.202262 1.35336,-2.988952 0.87282,-0.662532 1.80075,-0.797881 3.02672,-0.441481 1.09033,0.316966 2.06622,1.154614 2.41119,2.069623 0.36769,0.97528 0.24501,2.382768 -0.2868,3.290228 -0.69175,1.180381 -1.40815,1.562341 -2.93193,1.563206 -0.93288,5.3e-4 -1.45023,-0.107323 -2.05896,-0.429228 z"
       id="path1109" />
    <path
       style="fill:#ff5722;fill-opacity:1;stroke:#181818;stroke-width:0.2;stroke-linecap:square;stroke-miterlimit:0;paint-order:stroke markers fill"
       d="m 31.012045,62.47123 c 3.74736,-0.384325 24.41195,-0.542827 34.017857,-0.260929 11.929928,0.350099 35.816418,0.470223 38.500818,0.193617 4.97619,-0.51276 9.04057,-1.676154 10.95377,-3.135421 1.24067,-0.946304 0.80031,-2.135381 -2.58468,-6.979288 -2.54079,-3.635843 -2.70526,-3.93333 -2.55438,-4.620268 0.15411,-0.701685 0.72021,-1.206624 2.01982,-1.801603 1.70371,-0.779986 4.31018,-1.354833 11.5895,-2.556028 3.74197,-0.617477 7.23047,-1.250043 7.75223,-1.405703 3.58052,-1.068181 7.91187,-5.64376 9.79255,-10.344716 0.3866,-0.966337 0.50352,-1.661512 0.59877,-3.559918 l 0.11835,-2.359084 -0.95014,-1.267358 c -1.19036,-1.587762 -2.6306,-2.730845 -4.94116,-3.921664 -2.69176,-1.387284 -4.45777,-1.923813 -6.70095,-2.035806 -3.30233,-0.164873 -5.24826,0.470577 -7.32993,2.393608 -2.72194,2.514515 -4.57937,5.792891 -6.67006,11.772705 -1.48739,4.254267 -1.41277,4.180493 -4.93433,4.877866 l -2.11438,0.418708 -1.94887,1.519992 c -2.49555,1.946373 -4.10172,3.04519 -5.43509,3.718271 -3.451258,1.742194 -12.619772,3.795628 -21.932671,4.912175 -8.047236,0.964803 -9.229601,1.017963 -22.962052,1.032357 -15.262662,0.01601 -13.026261,0.227036 -27.006635,-2.548459 -5.207436,-1.033822 -10.912004,-2.143818 -12.676819,-2.46666 l -3.208751,-0.586984 -0.533818,0.634524 c -0.2936,0.348986 -1.668719,2.901281 -3.055818,5.671764 -2.7105425,5.41382 -3.1275337,6.618039 -3.1275337,9.031886 0,1.263462 0.035049,1.37111 0.6782091,2.083011 0.3730148,0.412883 1.1596793,0.987179 1.7481417,1.276213 l 1.0699274,0.525518 9.6383945,0.02466 c 7.0133,0.01794 10.333268,-0.0466 12.18973,-0.236993 z M 131.36711,30.220139 c -1.11904,-0.591759 -1.51448,-1.392102 -1.51358,-3.063396 7.9e-4,-1.503963 0.31698,-2.202262 1.35336,-2.988952 0.87282,-0.662532 1.80075,-0.797881 3.02672,-0.441481 1.09033,0.316966 2.06622,1.154614 2.41119,2.069623 0.36769,0.97528 0.24501,2.382768 -0.2868,3.290228 -0.69175,1.180381 -1.40815,1.562341 -2.93193,1.563206 -0.93288,5.3e-4 -1.45023,-0.107323 -2.05896,-0.429228 z"
       id="path1111" />
    <path
       style="fill:#ff5722;fill-opacity:1;stroke:#181818;stroke-width:0.2;stroke-linecap:square;stroke-miterlimit:0;paint-order:stroke markers fill"
       d="m 31.012045,62.47123 c 3.74736,-0.384325 24.41195,-0.542827 34.017857,-0.260929 11.929928,0.350099 35.816418,0.470223 38.500818,0.193617 4.97619,-0.51276 9.04057,-1.676154 10.95377,-3.135421 1.24067,-0.946304 0.80031,-2.135381 -2.58468,-6.979288 -2.54079,-3.635843 -2.70526,-3.93333 -2.55438,-4.620268 0.15411,-0.701685 0.72021,-1.206624 2.01982,-1.801603 1.70371,-0.779986 4.31018,-1.354833 11.5895,-2.556028 3.74197,-0.617477 7.23047,-1.250043 7.75223,-1.405703 3.58052,-1.068181 7.91187,-5.64376 9.79255,-10.344716 0.3866,-0.966337 0.50352,-1.661512 0.59877,-3.559918 l 0.11835,-2.359084 -0.95014,-1.267358 c -1.19036,-1.587762 -2.6306,-2.730845 -4.94116,-3.921664 -2.69176,-1.387284 -4.45777,-1.923813 -6.70095,-2.035806 -3.30233,-0.164873 -5.24826,0.470577 -7.32993,2.393608 -2.72194,2.514515 -4.57937,5.792891 -6.67006,11.772705 -1.48739,4.254267 -1.41277,4.180493 -4.93433,4.877866 l -2.11438,0.418708 -1.94887,1.519992 c -2.49555,1.946373 -4.10172,3.04519 -5.43509,3.718271 -3.451258,1.742194 -12.619772,3.795628 -21.932671,4.912175 -8.047236,0.964803 -9.229601,1.017963 -22.962052,1.032357 -15.262662,0.01601 -13.026261,0.227036 -27.006635,-2.548459 -5.207436,-1.033822 -10.912004,-2.143818 -12.676819,-2.46666 l -3.208751,-0.586984 -0.533818,0.634524 c -0.2936,0.348986 -1.668719,2.901281 -3.055818,5.671764 -2.7105425,5.41382 -3.1275337,6.618039 -3.1275337,9.031886 0,1.263462 0.035049,1.37111 0.6782091,2.083011 0.3730148,0.412883 1.1596793,0.987179 1.7481417,1.276213 l 1.0699274,0.525518 9.6383945,0.02466 c 7.0133,0.01794 10.333268,-0.0466 12.18973,-0.236993 z M 131.36711,30.220139 c -1.11904,-0.591759 -1.51448,-1.392102 -1.51358,-3.063396 7.9e-4,-1.503963 0.31698,-2.202262 1.35336,-2.988952 0.87282,-0.662532 1.80075,-0.797881 3.02672,-0.441481 1.09033,0.316966 2.06622,1.154614 2.41119,2.069623 0.36769,0.97528 0.24501,2.382768 -0.2868,3.290228 -0.69175,1.180381 -1.40815,1.562341 -2.93193,1.563206 -0.93288,5.3e-4 -1.45023,-0.107323 -2.05896,-0.429228 z"
       id="path1113" />
    <path
       style="fill:#ff5722;fill-opacity:1;stroke:#181818;stroke-width:0.2;stroke-linecap:square;stroke-miterlimit:0;paint-order:stroke markers fill"
       d="m 31.390024,62.354118 c 2.632022,-0.24026 28.9796,-0.272976 52.263698,-0.06489 20.115388,0.17976 20.372508,0.171727 24.654458,-0.770144 3.6184,-0.795917 6.22942,-1.980216 6.61778,-3.00168 0.32854,-0.864129 -0.47601,-2.370248 -4.07161,-7.622029 -1.79232,-2.617885 -1.9491,-3.183797 -1.12761,-4.070204 1.18434,-1.277917 3.61218,-1.935896 13.417,-3.636196 3.94985,-0.684961 7.6298,-1.411948 8.17767,-1.615524 2.2146,-0.822905 5.13024,-3.487026 7.20872,-6.586871 1.71839,-2.562794 2.25719,-4.062579 2.45502,-6.83378 0.16532,-2.315622 0.16442,-2.323969 -0.33065,-3.077871 -1.3304,-2.025971 -4.01161,-4.04058 -7.15494,-5.376084 -2.20552,-0.937057 -3.62258,-1.190344 -6.19808,-1.107848 -2.05766,0.06591 -2.3835,0.126775 -3.51561,0.656708 -1.54542,0.723401 -3.54167,2.565362 -4.88286,4.505452 -1.28038,1.852131 -2.74798,4.941621 -4.14166,8.718707 -0.61901,1.677614 -1.27378,3.276547 -1.45504,3.553187 -0.47639,0.727072 -1.14582,1.008798 -3.56493,1.500283 -2.15053,0.436917 -2.15397,0.438496 -3.82446,1.753941 -2.25269,1.773907 -4.49428,3.320328 -5.64074,3.89141 -3.556974,1.771824 -12.40695,3.749677 -22.111605,4.941657 -7.554605,0.927899 -8.348249,0.961596 -22.678572,0.962866 -15.92966,0.0013 -13.448876,0.234757 -28.159225,-2.648659 -5.509004,-1.079836 -11.097813,-2.167056 -12.419576,-2.416042 l -2.403211,-0.452708 -0.364071,0.396957 c -0.788073,0.859259 -4.5854915,8.317736 -5.6353846,11.068415 -0.5411153,1.417693 -0.8434282,3.680987 -0.6225117,4.660498 0.1976808,0.876493 0.8986308,1.596268 2.2623753,2.323134 l 1.0924302,0.582264 10.0844108,-0.0269 c 5.546424,-0.01479 10.977377,-0.108413 12.068784,-0.208042 z M 131.34978,30.264475 c -1.12304,-0.572934 -1.4954,-1.316447 -1.49625,-2.987624 -9e-4,-1.764077 0.35689,-2.549946 1.48733,-3.26685 1.12089,-0.710846 2.22729,-0.724953 3.59022,-0.04578 1.37202,0.683706 1.95294,1.589121 1.94948,3.038435 -0.003,1.299017 -0.25454,2.03595 -0.9449,2.769357 -0.68653,0.729345 -1.04745,0.85208 -2.54684,0.866076 -0.93678,0.0087 -1.48725,-0.09212 -2.03904,-0.373618 z"
       id="path1115" />
    <path
       style="fill:#ff5722;fill-opacity:1;stroke:#181818;stroke-width:0.2;stroke-linecap:square;stroke-miterlimit:0;paint-order:stroke markers fill"
       d="m 23.547017,62.330424 c 6.652382,-0.106529 27.36075,-0.171513 46.0186,-0.144409 36.993733,0.05374 35.283933,0.09739 39.756193,-1.01472 2.30562,-0.57333 5.01067,-1.86301 5.39952,-2.574319 0.40242,-0.736131 -0.0311,-1.68561 -2.43315,-5.328763 -2.76334,-4.191151 -3.03506,-4.680384 -3.03506,-5.464498 0,-0.52891 0.13794,-0.793636 0.64597,-1.239689 1.26492,-1.110623 3.30591,-1.654257 12.53284,-3.338251 9.63337,-1.758169 9.3384,-1.667396 11.80883,-3.634028 1.46899,-1.169414 3.07597,-2.979502 4.35747,-4.908206 1.5772,-2.373733 2.12063,-4.01505 2.32391,-7.018848 l 0.12411,-1.833816 -0.65145,-0.94494 c -1.58977,-2.305993 -5.81387,-5.001098 -9.19661,-5.867716 -0.8769,-0.224653 -1.84674,-0.286753 -3.76724,-0.241221 -2.42665,0.05753 -2.65421,0.09569 -3.68617,0.618151 -1.3554,0.686209 -3.20745,2.359473 -4.45408,4.024116 -1.21995,1.628999 -2.67508,4.588691 -4.37627,8.901203 -0.75195,1.906183 -1.57532,3.713147 -1.82971,4.015476 -0.48481,0.576154 -1.18293,0.829074 -3.89924,1.412637 -1.37232,0.294822 -1.65209,0.443814 -3.68527,1.962554 -4.40963,3.293896 -5.527396,3.910291 -8.916827,4.917215 -6.733072,2.000242 -18.588969,3.908962 -27.112259,4.364892 -2.495952,0.133515 -8.492339,0.181862 -16.158482,0.130281 -14.32872,-0.09641 -11.642715,0.198134 -28.911251,-3.170332 l -11.80783,-2.303278 -0.535287,0.634379 c -0.71057,0.84211 -5.1199119,9.660329 -5.5876662,11.174743 -0.4618143,1.495186 -0.6738593,3.148687 -0.5134424,4.00378 0.1718574,0.916078 0.885145,1.690741 2.2697625,2.465062 0.985213,0.550963 1.3525526,0.65577 2.2035771,0.628709 0.5617,-0.01786 6.46413,-0.119634 13.116512,-0.226164 z M 131.50039,30.390949 c -0.33447,-0.142521 -0.82075,-0.48944 -1.08061,-0.77093 -0.41523,-0.449807 -0.48035,-0.712978 -0.53758,-2.17256 -0.0753,-1.91947 0.14502,-2.526343 1.21248,-3.340534 0.48008,-0.366178 0.96569,-0.539152 1.67991,-0.59838 2.76009,-0.228889 4.65502,1.853839 4.0888,4.494034 -0.42131,1.964483 -1.2909,2.645717 -3.37862,2.646788 -0.75693,2.65e-4 -1.6499,-0.1159 -1.98438,-0.258418 z"
       id="path1117" />
    <path
       style="fill:#ff5722;fill-opacity:1;stroke:#181818;stroke-width:0.2;stroke-linecap:square;stroke-miterlimit:0;paint-order:stroke markers fill"
       d="m 33.468892,62.201305 c 7.535899,-0.07442 26.330767,-0.142764 41.766368,-0.151863 17.769665,-0.01048 28.74529,-0.08781 29.91996,-0.21083 3.35944,-0.351814 7.23108,-1.572488 9.01387,-2.841953 1.02609,-0.730637 0.75873,-1.452333 -2.28111,-6.157468 -2.38528,-3.691991 -2.63486,-4.170754 -2.63486,-5.05432 0,-0.570177 0.12622,-0.848085 0.57605,-1.268291 1.13486,-1.060111 3.07223,-1.583938 12.18064,-3.293403 8.08348,-1.517108 9.33775,-1.823493 10.66384,-2.604884 1.37585,-0.810715 4.41572,-3.859916 5.54707,-5.564103 1.77111,-2.667846 2.43594,-4.631536 2.65265,-7.835064 l 0.0979,-1.446574 -0.88828,-1.102617 c -1.6816,-2.08734 -5.33374,-4.461085 -8.21842,-5.341644 -1.06404,-0.324804 -1.79323,-0.395479 -4.0803,-0.395479 -2.71273,0 -2.81391,0.01458 -3.91332,0.563965 -1.37317,0.686177 -3.18847,2.296985 -4.41603,3.918558 -1.19552,1.579245 -2.28157,3.715566 -4.06132,7.988833 -0.80046,1.921931 -1.65244,3.883316 -1.8933,4.358629 -0.50801,1.002499 -1.03706,1.28727 -3.49119,1.879196 -2.18251,0.526412 -2.15921,0.514183 -5.39863,2.832372 -1.5729,1.125598 -3.31913,2.30251 -3.88052,2.615361 -3.640744,2.028934 -14.372405,4.30411 -26.628588,5.645423 -2.739726,0.299831 -4.930894,0.341265 -18.048364,0.341265 -17.616217,0 -14.62597,0.289388 -31.986368,-3.095559 L 12.679934,43.76067 12.314722,44.150687 c -0.91907,0.98149 -5.4713321,10.263507 -5.9512545,12.134551 -0.4196742,1.636162 -0.3883898,3.223694 0.078623,3.989652 0.2062824,0.33833 0.8650605,0.933643 1.4639528,1.322916 l 1.0888901,0.707774 5.3861606,0.01553 c 2.962388,0.0085 11.551897,-0.04537 19.087797,-0.119798 z M 131.22923,30.334471 c -1.07039,-0.507937 -1.37488,-1.206987 -1.3757,-3.158371 -8.2e-4,-1.979002 0.29423,-2.622918 1.51679,-3.310032 0.65441,-0.3678 0.98687,-0.426831 2.06184,-0.36609 1.62892,0.09204 2.61207,0.688371 3.2261,1.956789 0.78679,1.625279 0.1635,4.218415 -1.17215,4.87664 -0.86232,0.424963 -3.36226,0.425588 -4.25688,0.0011 z"
       id="path1119" />
    <path
       style="fill:#ff5722;fill-opacity:1;stroke:#181818;stroke-width:0.2;stroke-linecap:square;stroke-miterlimit:0;paint-order:stroke markers fill"
       d="m 68.620676,62.015412 c 19.593341,-0.07069 36.092004,-0.190916 36.663694,-0.267169 3.05147,-0.407016 6.78428,-1.549289 8.38943,-2.567249 1.4246,-0.903454 1.28887,-1.345742 -1.99895,-6.513806 -2.28157,-3.586361 -2.42173,-3.868164 -2.42173,-4.86895 0,-0.653269 0.10792,-0.927402 0.51972,-1.320149 1.1099,-1.058569 3.02267,-1.563071 14.12685,-3.726032 8.38264,-1.632836 8.5971,-1.718963 11.49401,-4.615876 3.63053,-3.630525 5.0538,-6.502476 5.35329,-10.802178 l 0.11909,-1.709674 -1.39614,-1.425365 c -2.10869,-2.152832 -5.18532,-4.04646 -7.79378,-4.796985 -1.43288,-0.412278 -6.17604,-0.474612 -7.13554,-0.09377 -0.99487,0.394876 -2.80865,1.740725 -3.89089,2.887094 -1.84451,1.953795 -2.68724,3.487859 -5.45982,9.938762 -0.86456,2.011542 -1.71019,3.868367 -1.87918,4.126277 -0.36591,0.558448 -1.05467,0.865474 -3.27389,1.459376 -2.09133,0.559676 -2.42092,0.73348 -5.41393,2.854944 -1.35127,0.957786 -2.89792,2.012061 -3.43702,2.342832 -2.742005,1.68242 -10.082142,3.528941 -19.570822,4.923343 -8.415235,1.236652 -7.572449,1.189736 -22.987664,1.279708 -9.14387,0.05337 -15.23515,0.01048 -17.008927,-0.119817 C 38.058608,48.739272 35.390169,48.289753 22.980052,45.86095 L 12.774695,43.86364 12.24974,44.484787 c -0.614294,0.726855 -3.6712365,6.694572 -4.9658718,9.694304 -0.7803224,1.808041 -0.9080659,2.288148 -0.980559,3.685267 -0.046598,0.898131 0.00484,1.833677 0.1166733,2.121879 0.1100111,0.283512 0.7224739,0.900086 1.3610298,1.370164 l 1.1610076,0.854683 12.0272011,-0.03357 c 6.614959,-0.01847 28.058115,-0.09141 47.651455,-0.162102 z M 130.9702,30.219179 c -0.98979,-0.66702 -1.13632,-1.114576 -1.07614,-3.286874 0.0485,-1.751596 0.0952,-1.967262 0.52572,-2.427555 0.74658,-0.798254 1.38484,-1.036249 2.77819,-1.03593 1.53185,3.7e-4 2.33315,0.350868 3.15592,1.380523 0.77298,0.967326 0.92333,2.834855 0.33527,4.164267 -0.57917,1.309312 -1.24781,1.63489 -3.35936,1.635757 -1.47836,5.3e-4 -1.81008,-0.05987 -2.3596,-0.430188 z"
       id="path1121" />
    <path
       style="fill:#eeeeee;stroke:#181818;stroke-width:0.755907;stroke-linecap:square;stroke-miterlimit:0;paint-order:stroke markers fill"
       d="m 170.28537,183.67976 c -14.30888,-0.71762 -23.1062,-1.81944 -31.78571,-3.98101 C 119.098,174.8669 75.317018,166.12258 40.285373,160.08253 30.09465,158.32547 25.539487,156.93726 23.854179,155.07501 c -1.694815,-1.87275 -0.973813,-3.25514 2.894968,-5.55059 14.414824,-8.55268 21.864987,-14.61329 29.59633,-24.07622 10.323001,-12.63504 17.130911,-25.985734 22.488582,-44.101362 1.013557,-3.427088 2.951933,-8.358904 4.307503,-10.95959 7.645354,-14.667755 23.539668,-29.212332 39.109338,-35.78819 11.37805,-4.805523 42.30985,-12.968995 58.74876,-15.504878 23.35438,-3.60267 57.00397,-3.240431 97.14286,1.045747 10.60127,1.132042 15.83813,2.084545 23.92857,4.352232 19.83103,5.558483 23.36737,7.162661 37.5,17.010997 11.36883,7.922379 17.92997,14.366367 26.18516,25.71761 10.34003,14.217975 26.08249,40.481554 35.37925,59.024174 5.64328,11.25568 5.62685,11.62595 -0.79013,17.80534 -4.01235,3.86378 -14.9268,12.39919 -19.70285,15.40817 -5.71602,3.60118 -22.39752,8.80342 -39.64286,12.36291 -17.64699,3.64239 -46.52725,7.95025 -64.64286,9.64233 -20.94403,1.95626 -84.69475,3.28816 -106.07143,2.21607 z"
       id="path1021"
       transform="scale(0.26458333)" />
    <path
       style="fill:#4d4229;fill-opacity:1;stroke:#181818;stroke-width:0.755907;stroke-linecap:square;stroke-miterlimit:0;paint-order:stroke markers fill"
       d="m 162.78537,182.88716 c -10.22526,-0.76189 -15.92961,-1.7176 -31.78571,-5.32539 -17.66627,-4.01966 -47.784791,-10.05752 -72.857144,-14.60567 -11,-1.99542 -22.279923,-4.12321 -25.066496,-4.72845 -5.566184,-1.20895 -9.576361,-3.26016 -9.576361,-4.89833 0,-0.58041 4.715064,-4.16321 10.47792,-7.96178 C 55.715546,131.03901 68.730084,113.19288 78.142581,84.806455 82.137706,72.757863 84.28384,68.397503 89.863496,60.992739 97.124709,51.35638 108.00703,42.194099 118.49966,36.88275 c 10.97915,-5.557625 43.58404,-14.43451 65.71429,-17.891124 19.67035,-3.072394 73.43109,-1.70652 102.5,2.604171 11.34437,1.682282 29.80761,7.12562 37.85714,11.161053 11.6534,5.842147 27.19662,17.862201 34.66588,26.808204 14.03988,16.81568 45.58646,70.389996 45.67126,77.561686 0.0421,3.5551 -19.195,19.58072 -28.90857,24.08261 -5.71974,2.65088 -18.31934,6.43677 -30.50689,9.1666 -19.35157,4.33445 -55.0839,9.63125 -74.85025,11.09545 -26.17437,1.93887 -89.65364,2.77212 -107.85715,1.41576 z"
       id="path1023"
       transform="scale(0.26458333)" />
    <path
       style="fill:#4d4229;fill-opacity:1;stroke:#181818;stroke-width:0.755907;stroke-linecap:square;stroke-miterlimit:0;paint-order:stroke markers fill"
       d="m 157.78537,182.11578 c -5.97189,-0.61913 -14.8281,-2.34737 -44.72976,-8.72874 -8.29779,-1.77085 -25.494224,-5.18442 -38.214284,-7.5857 -39.931671,-7.53827 -45.024241,-8.60825 -47.862077,-10.056 -1.520917,-0.77591 -2.765304,-1.66962 -2.765304,-1.98601 0,-0.94435 2.763872,-3.14715 11.424045,-9.10493 20.431148,-14.05565 32.789693,-31.16603 42.515198,-58.862205 1.862348,-5.303572 4.47949,-11.84903 5.815873,-14.545465 6.095119,-12.29819 18.994349,-25.291316 32.740009,-32.978324 11.83943,-6.620992 52.82883,-17.445268 74.5382,-19.683678 9.56975,-0.986718 57.4185,-0.485047 71.89525,0.753786 28.10199,2.404801 49.88808,7.515703 63.21428,14.829736 12.67677,6.957593 27.21911,18.855234 34.47666,28.206657 14.81815,19.093331 43.38049,67.894973 43.38049,74.119953 0,1.75761 -0.92691,3.1096 -4.64073,6.76897 -6.84845,6.74805 -16.29071,13.62126 -23.57356,17.15966 -12.9074,6.2711 -37.8467,12.01821 -74.28571,17.11869 -19.44383,2.72162 -32.41574,3.86673 -52.85715,4.66605 -22.07097,0.86305 -82.44625,0.80176 -91.07143,-0.0924 z"
       id="path1025"
       transform="scale(0.26458333)" />
    <path
       style="fill:#4d4229;fill-opacity:1;stroke:#181818;stroke-width:0.755907;stroke-linecap:square;stroke-miterlimit:0;paint-order:stroke markers fill"
       d="m 154.57109,181.4585 c -2.35714,-0.36056 -11.35714,-2.1181 -20,-3.90564 -19.67189,-4.0686 -50.784012,-10.29366 -81.557604,-16.31844 -22.276751,-4.36129 -28.085256,-5.93458 -28.085256,-7.60717 0,-0.70192 1.373432,-1.79381 14.691125,-11.67955 18.058358,-13.40474 28.227486,-28.19804 39.256469,-57.107436 6.686882,-17.52779 10.568777,-23.698721 21.198176,-33.698102 7.06399,-6.645292 15.74745,-12.463939 22.8371,-15.302772 13.33878,-5.341107 38.82106,-12.103161 57.95377,-15.378785 10.10713,-1.730397 11.8293,-1.810611 38.57143,-1.796556 29.21389,0.01535 43.36004,0.62891 57.91039,2.511726 17.22756,2.229247 34.56601,6.553022 44.70901,11.149305 11.51452,5.217789 30.00692,19.69812 37.99798,29.754017 12.49642,15.725428 38.84576,59.544073 43.16226,71.778343 1.26388,3.58221 0.36698,5.40968 -5.11311,10.41817 -9.09211,8.30967 -17.80361,14.0908 -26.74603,17.74919 -17.18976,7.03242 -56.60874,14.48321 -97.85714,18.4965 -9.28134,0.90303 -22.71391,1.19409 -63.21429,1.36972 -28.91127,0.12538 -53.30501,-0.064 -55.71428,-0.43252 z"
       id="path1027"
       transform="scale(0.26458333)" />
    <path
       style="fill:#642212;fill-opacity:1;stroke:#642212;stroke-width:0.755907;stroke-linecap:square;stroke-miterlimit:0;paint-order:stroke markers fill;stroke-opacity:1"
       d="M 93.499659,169.0434 C 59.517516,162.19445 30.42823,156.13767 28.856802,155.58389 c -1.571429,-0.55379 -2.857143,-1.45439 -2.857143,-2.00134 0,-0.54694 3.535714,-3.66261 7.857143,-6.92371 C 58.179848,128.30386 65.775316,118.07199 78.509973,86.50648 86.260699,67.294686 89.438295,62.067937 98.958902,52.870538 112.6557,39.638738 122.47121,34.849061 151.3568,27.301932 c 30.94825,-8.086053 43.27336,-9.222937 86.89654,-8.015446 29.67418,0.821382 42.40403,2.028065 58.10264,5.507645 12.65814,2.805664 24.97632,7.141869 31.73634,11.171727 12.67098,7.553564 26.1866,19.081993 33.1551,28.280352 14.9053,19.674842 42.25224,66.40161 42.25224,72.19494 0,3.16987 -11.76555,13.82839 -22.16227,20.077 -3.21698,1.93346 -8.46614,4.52684 -11.66482,5.76307 -16.04012,6.19923 -49.41257,12.67441 -88.67291,17.205 -11.72976,1.3536 -17.80509,1.50677 -69.28571,1.74675 l -56.42858,0.26305 z"
       id="path1029"
       transform="scale(0.26458333)" />
    <path
       style="fill:#642212;fill-opacity:1;stroke:#642212;stroke-width:0.755907;stroke-linecap:square;stroke-miterlimit:0;stroke-opacity:1;paint-order:stroke markers fill"
       d="m 148.8568,180.35585 c -2.35714,-0.55233 -4.92857,-1.16697 -5.71428,-1.36585 -0.78572,-0.1989 -2.39286,-0.49539 -3.57143,-0.65888 -1.17857,-0.1635 -3.75,-0.6711 -5.71429,-1.128 -1.96428,-0.45689 -4.53571,-0.9879 -5.71428,-1.18002 -1.17857,-0.19211 -20.14286,-3.99707 -42.142861,-8.45546 -59.676504,-12.0937 -59.642857,-12.08571 -59.642857,-14.15227 0,-0.4939 4.131629,-4.17179 9.181398,-8.17308 12.668168,-10.0379 18.639611,-15.7201 23.934506,-22.77514 6.697584,-8.92401 9.80581,-14.78833 18.28076,-34.490454 4.213816,-9.796061 8.75733,-19.649416 10.096696,-21.896344 3.254616,-5.459962 13.108558,-15.772023 20.119658,-21.055052 8.14685,-6.138833 22.28811,-12.461694 34.19902,-15.291115 0.92838,-0.220535 7.24191,-1.835931 14.03006,-3.589768 26.65135,-6.885837 41.57273,-8.145936 81.47951,-6.880878 28.84966,0.914543 42.42979,2.095152 55.26015,4.804122 23.61492,4.985993 35.35688,10.347124 51.79959,23.650609 8.1773,6.616091 14.71506,13.61809 20.62174,22.086063 16.06201,23.02694 38.13977,61.548527 38.13977,66.546837 0,1.24401 -1.61634,3.35706 -5.53571,7.23682 -16.4783,16.31182 -33.39824,22.95381 -77.32143,30.35286 -39.37885,6.63353 -54.73425,7.53188 -127.5,7.4592 -31.7469,-0.0317 -40.88427,-0.24716 -44.28572,-1.0442 z"
       id="path1031"
       transform="scale(0.26458333)" />
    <path
       style="fill:#642212;fill-opacity:1;stroke:#642212;stroke-width:0.755907;stroke-linecap:square;stroke-miterlimit:0;stroke-opacity:1;paint-order:stroke markers fill"
       d="M 123.49966,175.39815 C 68.418401,164.22158 34.589836,157.21479 30.705839,156.17809 c -3.656706,-0.97602 -5.356682,-2.1905 -4.655112,-3.32567 0.172672,-0.27939 4.249677,-3.65873 9.060012,-7.50965 16.763552,-13.4201 25.456991,-22.98392 32.256947,-35.48649 1.74989,-3.21739 6.110982,-12.580578 9.691317,-20.807085 9.791593,-22.498073 11.396996,-25.28812 19.272428,-33.493759 8.152239,-8.494055 13.052379,-12.370884 20.939359,-16.566522 7.85588,-4.179098 16.99585,-7.417648 32.02132,-11.346075 30.12819,-7.877048 36.57634,-8.651613 71.35041,-8.570748 41.04253,0.09544 59.30231,1.581473 79.28571,6.452488 18.42568,4.491317 29.57634,9.840596 43.52605,20.880628 10.11476,8.004992 17.71417,16.694995 27.39437,31.325742 17.17927,25.964901 32.65101,53.717971 32.65101,58.569091 0,2.23662 -6.92086,9.55698 -14.29896,15.12436 -14.63935,11.04657 -31.74524,16.58461 -71.93915,23.2903 -34.7402,5.79583 -51.82564,6.76953 -118.0476,6.72753 l -46.07143,-0.0292 -29.64286,-6.01485 z"
       id="path1033"
       transform="scale(0.26458333)" />
    <path
       style="fill:#642212;fill-opacity:1;stroke:#642212;stroke-width:0.755907;stroke-linecap:square;stroke-miterlimit:0;stroke-opacity:1;paint-order:stroke markers fill"
       d="m 96.356802,170.16661 c -62.017607,-12.76446 -67.86255,-14.05572 -69.697666,-15.39759 -1.75468,-1.28305 -1.443478,-1.63017 9.658576,-10.77304 15.032604,-12.37979 20.555444,-18.0481 26.757378,-27.46214 4.107879,-6.23543 5.694327,-9.44347 15.047031,-30.427385 4.388003,-9.845015 9.167871,-19.69236 10.621927,-21.882989 3.672643,-5.533069 15.501242,-17.128144 21.758412,-21.328859 10.38583,-6.972457 20.01069,-10.62849 44.06863,-16.739595 16.75906,-4.257073 24.73236,-5.726014 36.78571,-6.777128 17.03198,-1.485276 65.58864,-0.477515 85.06949,1.765561 18.82285,2.16731 36.94146,7.067825 49.16149,13.296638 13.37901,6.819564 28.42666,19.686393 37.91907,32.42354 14.42092,19.350332 39.99281,63.411967 39.99281,68.909577 0,4.93993 -13.83396,17.05794 -27.1063,23.74407 -12.68978,6.39265 -37.92816,12.49138 -71.53699,17.28656 -28.89317,4.12237 -29.43992,4.14793 -93.85671,4.38684 l -60,0.22253 z"
       id="path1035"
       transform="scale(0.26458333)" />
    <path
       style="fill:#642212;fill-opacity:1;stroke:#642212;stroke-width:0.755905;stroke-linecap:square;stroke-miterlimit:0;stroke-opacity:1;paint-order:stroke markers fill"
       d="M 166.88383,102.36963 V 22.912224 l 0.66964,-0.180028 c 1.40801,-0.378531 8.83502,-1.800634 11.65179,-2.231052 6.84736,-1.046313 13.18924,-1.608737 21.51786,-1.908291 6.4434,-0.231749 32.90006,-0.113269 41.33928,0.185128 27.30031,0.965294 38.792,2.078209 52.85714,5.118957 16.75445,3.622149 29.24966,8.526556 39.91072,15.665065 9.85884,6.601359 19.66523,15.534734 26.76323,24.380616 7.33848,9.1456 21.99954,32.16465 32.20404,50.562981 6.7951,12.2513 10.05059,19.27374 10.05059,21.68018 0,1.56051 -1.99861,4.42739 -5.62168,8.06394 -5.97868,6.00094 -14.86302,12.24994 -22.84673,16.06977 -12.42075,5.94273 -35.73682,11.61277 -66.71017,16.22269 -16.28703,2.42408 -25.39025,3.50148 -34.01785,4.02617 -12.91181,0.78522 -44.26922,1.24624 -85.3125,1.25428 l -22.45536,0.004 z"
       id="path1037"
       transform="scale(0.26458333)" />
    <path
       style="fill:#642212;fill-opacity:1;stroke:#642212;stroke-width:0.755905;stroke-linecap:square;stroke-miterlimit:0;stroke-opacity:1;paint-order:stroke markers fill"
       d="M 166.88383,102.38067 V 22.577165 l 1.32682,-0.295188 c 9.57306,-2.129804 18.68722,-3.322835 29.48478,-3.859515 6.03226,-0.299826 42.09801,-0.114922 50.25983,0.257675 25.43938,1.161339 34.84468,2.184665 48.65757,5.294096 16.19521,3.645714 28.68176,8.70292 39.11029,15.840139 10.77575,7.374863 20.97839,17.050161 28.29662,26.834086 13.56986,18.14189 37.60891,59.174662 39.84282,68.008572 0.34472,1.36321 0.35063,1.5156 0.0931,2.4015 -0.91839,3.15915 -6.95834,9.42737 -14.39325,14.93719 -4.30368,3.18934 -8.55959,5.82035 -13.03571,8.05869 -13.99379,6.99774 -41.2107,13.2921 -80.17857,18.54262 -15.76702,2.12444 -22.90363,2.59744 -46.10678,3.05584 -11.28888,0.22303 -50.58238,0.52107 -69.47358,0.52697 l -13.88393,0.004 z"
       id="path1039"
       transform="scale(0.26458333)" />
    <path
       style="fill:#642212;fill-opacity:1;stroke:#642212;stroke-width:0.755905;stroke-linecap:square;stroke-miterlimit:0;stroke-opacity:1;paint-order:stroke markers fill"
       d="m 166.88383,102.36274 c 0,-44.09821 0.0581,-80.178568 0.12907,-80.178568 0.071,0 1.69821,-0.319238 3.61607,-0.709417 11.07457,-2.25308 19.29489,-3.131755 31.79057,-3.398116 9.91725,-0.211399 40.62192,0.06937 48.39286,0.442505 19.90424,0.955748 29.52251,1.894249 39.64286,3.868144 18.14819,3.539663 31.76173,8.467106 42.92986,15.538527 9.90479,6.271506 21.08035,16.3117 28.79044,25.8655 6.45502,7.998638 18.41034,26.496868 28.67932,44.375005 7.17652,12.4942 12.2737,22.6213 13.27025,26.36543 0.54395,2.04364 0.15625,3.28713 -1.8848,6.04528 -1.26827,1.71385 -5.52698,6.03481 -7.94578,8.06192 -7.12133,5.9681 -15.32602,10.98739 -23.00202,14.07167 -14.08838,5.66084 -37.58503,10.89046 -68.96227,15.34885 -20.9057,2.9705 -28.54482,3.50475 -56.42857,3.9464 -10.21406,0.16178 -61.36264,0.53064 -74.0625,0.5341 l -4.95536,10e-4 z"
       id="path1041"
       transform="scale(0.26458333)" />
    <path
       style="fill:#642212;fill-opacity:1;stroke:#642212;stroke-width:0.755905;stroke-linecap:square;stroke-miterlimit:0;stroke-opacity:1;paint-order:stroke markers fill"
       d="m 166.88656,102.59437 c 0.002,-44.176501 0.0618,-80.412893 0.13393,-80.525314 0.2238,-0.34868 9.25157,-2.060388 14.86334,-2.818159 9.6917,-1.308695 13.19772,-1.444636 36.69643,-1.422858 20.15239,0.01868 28.9548,0.178585 38.125,0.692589 20.00787,1.121473 29.41838,2.33064 42.41071,5.449392 23.34085,5.602868 38.15943,13.818734 54.74936,30.354676 4.49452,4.4799 7.18061,7.465553 9.7792,10.869855 11.13416,14.586327 31.98296,49.101049 38.73957,64.132479 2.56339,5.7028 2.75045,7.19468 1.22014,9.73214 -1.85807,3.08095 -6.72486,8.0067 -11.85482,11.99846 -6.41755,4.99366 -14.22555,9.52338 -20.95309,12.1557 -15.00378,5.8706 -40.00902,11.27375 -72.84107,15.73956 -11.86698,1.61414 -18.33087,2.24085 -27.67857,2.68359 -12.49855,0.59198 -19.04523,0.67861 -88.79465,1.17493 l -14.59821,0.10387 z"
       id="path1043"
       transform="scale(0.26458333)" />
    <path
       style="fill:#642212;fill-opacity:1;stroke:#642212;stroke-width:0.755905;stroke-linecap:square;stroke-miterlimit:0;stroke-opacity:1;paint-order:stroke markers fill"
       d="m 166.92828,102.51488 0.0448,-80.777136 1.60714,-0.403631 c 5.3451,-1.342413 16.19827,-2.929183 23.75,-3.47233 4.40171,-0.316586 49.16303,-0.315146 56.60714,0.0018 21.40819,0.911552 33.59654,2.175291 45.25998,4.69274 25.92572,5.595836 41.25049,13.50615 58.48415,30.188257 3.61453,3.49887 7.519,7.68547 9.71935,10.421714 11.06209,13.7562 34.96822,53.305056 40.96817,67.775276 1.65723,3.99677 1.83892,5.42923 0.93908,7.4033 -0.95083,2.08593 -4.45026,6.0514 -8.63257,9.78224 -7.41066,6.61069 -17.19123,12.53513 -26.29173,15.92581 -14.51341,5.40744 -37.69019,10.43881 -67.41071,14.63398 -25.57449,3.60995 -31.64692,3.85692 -105.625,4.29597 -8.8884,0.0528 -19.15411,0.14388 -22.8127,0.20252 l -6.65198,0.10661 z"
       id="path1045"
       transform="scale(0.26458333)" />
    <path
       style="fill:#642212;fill-opacity:1;stroke:#642212;stroke-width:0.755905;stroke-linecap:square;stroke-miterlimit:0;stroke-opacity:1;paint-order:stroke markers fill"
       d="M 166.88383,102.57093 V 21.483652 l 0.68062,-0.183272 c 3.14359,-0.84648 9.78418,-2.029065 15.56938,-2.772659 8.34481,-1.072591 7.11202,-1.030459 32.64166,-1.115571 23.95081,-0.07985 32.43889,0.03691 41.91191,0.576539 18.36564,1.046189 29.09083,2.429105 40.98214,5.284277 19.01351,4.565251 32.01883,10.615482 44.64286,20.768405 4.97629,4.002187 13.48657,12.173566 17.50047,16.803516 5.64264,6.508684 14.95326,20.35565 25.39494,37.767916 9.9759,16.635567 17.66888,31.381437 18.71293,35.868887 0.31159,1.33922 0.14591,2.95977 -0.41594,4.06852 -0.74543,1.47106 -2.48342,3.64327 -5.00168,6.25139 -5.72007,5.92412 -13.02611,11.27158 -21.43809,15.69103 -13.93111,7.31904 -41.89489,13.91311 -81.71691,19.26944 -20.93014,2.81524 -27.19452,3.02221 -108.48215,3.58413 -7.26785,0.0502 -14.96205,0.141 -17.09821,0.20168 l -3.88393,0.11033 z"
       id="path1047"
       transform="scale(0.26458333)" />
    <path
       style="fill:#642212;fill-opacity:1;stroke:#642212;stroke-width:0.755905;stroke-linecap:square;stroke-miterlimit:0;stroke-opacity:1;paint-order:stroke markers fill"
       d="M 166.88383,102.58229 V 21.1425 l 1.5625,-0.366316 c 6.38855,-1.497747 17.49883,-3.102354 23.62177,-3.411585 4.53384,-0.228975 52.05495,-0.230991 58.20859,-0.0025 18.02096,0.669229 32.65029,2.196514 43.69796,4.562021 22.04984,4.721268 37.13244,11.549374 50.85561,23.023052 6.06929,5.074409 14.35748,13.326119 18.10784,18.028118 10.78187,13.517732 33.36398,50.64217 40.1908,66.07273 1.72732,3.9042 2.17257,5.32885 2.1744,6.95719 0.002,1.25678 -0.067,1.54845 -0.62817,2.67857 -1.1426,2.301 -4.59155,6.20067 -8.83571,9.99039 -5.27589,4.71099 -11.99657,9.22089 -18.88064,12.66983 -14.28132,7.155 -43.64348,13.87999 -83.11066,19.03535 -18.34181,2.39588 -25.88519,2.63916 -100.26786,3.23373 -12.27679,0.0981 -23.30581,0.2303 -24.50893,0.2937 l -2.1875,0.11526 z"
       id="path1049"
       transform="scale(0.26458333)" />
    <path
       style="fill:#642212;fill-opacity:1;stroke:#642212;stroke-width:0.755905;stroke-linecap:square;stroke-miterlimit:0;stroke-opacity:1;paint-order:stroke markers fill"
       d="M 166.88383,102.58621 V 20.807478 l 2.63393,-0.556307 c 5.2427,-1.107298 10.06272,-1.88573 16.38393,-2.646 3.55441,-0.427499 4.45785,-0.459151 17.32143,-0.606863 17.64855,-0.202657 44.1165,-0.05324 51.60714,0.291343 23.43725,1.078141 38.6832,3.415417 54.64286,8.377008 7.48309,2.326368 15.31354,5.685358 21.46052,9.205817 2.99112,1.713055 8.28023,5.269375 11.05931,7.436116 7.21302,5.62372 17.18513,15.393864 21.95149,21.506911 9.56191,12.263564 28.34696,42.746757 36.92962,59.927097 3.73306,7.47263 4.63582,9.85687 4.65,12.28086 0.009,1.46531 -0.0405,1.70361 -0.55639,2.70025 -2.22184,4.29249 -10.06362,11.79836 -17.54812,16.79641 -7.59263,5.07025 -13.71134,8.03854 -22.5,10.91511 -16.10299,5.27058 -39.19418,9.96125 -68.21429,13.85682 -19.76156,2.65274 -28.46708,2.99276 -89.46429,3.49435 -26.9248,0.22141 -36.83481,0.34244 -38.79464,0.47381 l -1.5625,0.10473 z"
       id="path1051"
       transform="scale(0.26458333)" />
    <path
       style="fill:#642212;fill-opacity:1;stroke:#642212;stroke-width:0.755905;stroke-linecap:square;stroke-miterlimit:0;stroke-opacity:1;paint-order:stroke markers fill"
       d="m 166.92828,102.60656 0.0448,-82.118816 2.76785,-0.573746 c 5.96385,-1.236239 14.40854,-2.507689 19.375,-2.917143 3.50944,-0.289332 46.8379,-0.432052 57.67857,-0.189989 26.00793,0.580735 43.48145,2.870164 60.625,7.943257 16.4037,4.854155 28.83394,11.718983 41.0272,22.658014 3.61507,3.243228 11.06331,10.701305 13.32984,13.347464 9.19347,10.733282 29.44163,43.125289 39.40347,63.035719 3.86189,7.71865 4.51264,9.47541 4.5311,12.23214 0.0109,1.62411 -0.0343,1.87706 -0.4995,2.79508 -1.74009,3.43411 -8.08421,9.8794 -14.39925,14.6289 -5.68827,4.2781 -13.15452,8.48848 -19.46428,10.97632 -14.35025,5.65808 -37.90968,10.93209 -68.15176,15.25644 -24.73114,3.53634 -30.57988,3.80969 -93.54467,4.37201 -31.246,0.27904 -40.33287,0.40265 -41.83055,0.56901 l -0.9377,0.10415 z"
       id="path1053"
       transform="scale(0.26458333)" />
    <path
       style="fill:#642212;fill-opacity:1;stroke:#642212;stroke-width:0.755905;stroke-linecap:square;stroke-miterlimit:0;stroke-opacity:1;paint-order:stroke markers fill"
       d="m 166.88383,102.65833 c 0,-78.335672 0.0155,-82.418945 0.3125,-82.506679 1.48051,-0.437296 10.51385,-2.018375 15.3125,-2.680104 6.8674,-0.947006 5.41353,-0.912375 38.30357,-0.912375 31.38291,0 33.41766,0.03374 43.75,0.725335 17.69134,1.18418 31.73645,3.656006 45.63702,8.031749 12.69048,3.994817 23.57007,9.74072 33.47934,17.681634 6.2755,5.028943 16.14845,14.768768 20.25468,19.981584 10.83352,13.752995 31.44766,47.532376 39.37921,64.528806 2.07163,4.43924 2.53748,5.91191 2.6372,8.33661 l 0.0808,1.96428 -0.68947,1.28995 c -1.00484,1.87998 -2.65055,3.88177 -5.77875,7.02902 -6.62821,6.66858 -13.63125,11.64663 -22.58928,16.05737 -3.89927,1.91992 -6.69768,3.05116 -11.51786,4.65604 -14.75616,4.91305 -35.76984,9.33755 -62.67857,13.19717 -24.82899,3.56131 -27.81007,3.68318 -109.19643,4.46395 -18.44784,0.17698 -24.77968,0.29203 -26.02679,0.47291 l -0.66964,0.0971 z"
       id="path1055"
       transform="scale(0.26458333)" />
  </g>
</svg>
